<?xml version="1.0" encoding="utf-8"?>
<!-- Generator: Adobe Illustrator 25.1.0, SVG Export Plug-In . SVG Version: 6.00 Build 0)  -->
<svg version="1.1" id="ab82d996-d758-4a94-9ad9-9e4bd5f70489"
	 xmlns="http://www.w3.org/2000/svg" xmlns:xlink="http://www.w3.org/1999/xlink" x="0px" y="0px" viewBox="0 0 949.6 703.7"
	 style="enable-background:new 0 0 949.6 703.7;" xml:space="preserve">
<style type="text/css">
	.st0{fill:#7198D1;}
	.st1{fill:#3F3D56;}
	.st2{fill:none;stroke:#3F3D56;stroke-width:4;stroke-miterlimit:10;}
	.st3{fill:#57B793;}
	.st4{opacity:0.1;enable-background:new    ;}
	.st5{fill:#656380;}
	.st6{opacity:0.2;enable-background:new    ;}
	.st7{fill:#3366CC;}
	.st8{opacity:5.000000e-02;enable-background:new    ;}
	.st9{fill:#FFC0C6;}
	.st10{fill:#605D82;}
	.st11{fill:#535070;}
</style>
<path class="st0" d="M683.3,417.4l7.5-4.6c0.7-0.5,1.4-0.9,2.1-1.4c-33-5.7-57.6-33.5-59.2-67c-0.5-11.2,1.6-22.3,6.2-32.5
	c8.7-19.3,25.4-33.8,45.8-39.5l-0.4,29.4l16.2-32c0.1,0,0.1,0,0.2,0c39.4-1.8,72.8,28.6,74.6,67.9c0,0,0,0,0,0c0.1,1.4,0,2.7,0,4
	c5.6-6.4,10.7-13.3,14.1-20.8c6.8-15.2,7-32.5,6.4-53.5c-1.1-41.6-2.9-83.5-5.2-125.3c-34.8-3.9-61.7-32.5-63.3-67.5
	c-0.1-2.2-0.1-4.3,0-6.5c0-0.5,0-1.1,0.1-1.6c0.1-2.1,0.3-4.1,0.7-6.1c0-0.3,0.1-0.7,0.2-1c0.3-1.7,0.6-3.4,1-5.1
	c0.2-0.6,0.3-1.2,0.5-1.9c0.5-1.8,1-3.6,1.7-5.4c0.2-0.6,0.5-1.2,0.7-1.7c0.5-1.3,1.1-2.6,1.6-3.9c0.3-0.7,0.6-1.3,0.9-2
	c0.1-0.2,0.2-0.3,0.2-0.5l0,0c15.5-30.7,50.8-45.9,83.8-36.2l-0.5,38.3l16-31.6c26.9,15.4,40.7,46.6,34,76.9h0.1
	c-0.1,0.5-0.3,1-0.4,1.5c-0.2,0.9-0.5,1.9-0.7,2.8c-0.3,1.2-0.7,2.4-1.1,3.5c-0.3,0.9-0.6,1.8-0.9,2.6c-0.5,1.3-1,2.5-1.6,3.7
	c-0.3,0.7-0.6,1.4-1,2.2c-0.9,1.8-1.9,3.6-3,5.4c-0.4,0.6-0.8,1.2-1.2,1.8c-0.8,1.2-1.5,2.4-2.4,3.5c-0.5,0.7-1.1,1.4-1.6,2.1
	c-0.8,1-1.6,2-2.4,2.9c-0.6,0.7-1.2,1.3-1.8,2c-0.9,0.9-1.8,1.8-2.7,2.7c-0.6,0.6-1.2,1.2-1.9,1.7c-1,0.9-2.2,1.8-3.3,2.7
	c-0.6,0.4-1.1,0.9-1.7,1.3c-1.7,1.3-3.4,2.4-5.2,3.5c-0.3,0.2-0.7,0.4-1,0.6c-1.5,0.9-3,1.7-4.6,2.5c-0.7,0.3-1.4,0.6-2.1,0.9
	c-1.3,0.6-2.6,1.1-3.9,1.6c-0.8,0.3-1.6,0.6-2.3,0.8c-1.3,0.4-2.6,0.9-4,1.2c-0.8,0.2-1.6,0.4-2.4,0.6c-1.5,0.4-3,0.6-4.5,0.9
	c-0.1,0-0.2,0-0.3,0.1c1,17.6,1.9,35.3,2.6,52.9c17.2-35.4,59.9-50.1,95.3-32.9c1.2,0.6,2.5,1.2,3.7,1.9l-12.6,34.5l25.9-24.9
	c13.9,12.7,22.2,30.4,23,49.3c0.3,6.6-0.3,13.2-1.8,19.6c-9,38.3-47.3,62.2-85.7,53.2c-19.2-4.5-35.6-16.7-45.5-33.7
	c0,1.8,0.1,3.6,0.2,5.4c0.5,18.5,1.1,41.6-8.2,62.1c-6.2,14-16.3,25.3-26.3,35.4c-6.5,6.6-13.2,13-20.1,19.2
	c-6.8,9.1-15.6,16.4-25.8,21.4c-11.3,8.7-23,16.9-35.1,24.5l-7.4,4.7c-6.8,4.2-13.8,8.5-20.6,13c1.2-0.1,2.4-0.2,3.6-0.3
	c31-1.5,59.4,17.3,70.2,46.4l-44.6,36.3l49-11.4c0,39.4-32,71.3-71.4,71.3c-10.7,0-21.2-2.4-30.8-7c1.1,1.4,2.2,2.8,3.3,4.1
	c2.2,2.7,4.4,5.4,6.5,8.1c29,36.7,37.1,71.6,22.7,98.2l-17.5-9.4c14-25.9-7-59-20.8-76.5c-2.1-2.6-4.2-5.3-6.4-8
	c-18.5-23-39.5-49.1-39-81.1C598.8,469.8,645.7,440.8,683.3,417.4z"/>
<ellipse class="st1" cx="455.5" cy="682.7" rx="455.5" ry="21"/>
<path class="st2" d="M823.5,674.8c3-5.5-0.4-12.3-4.3-17.2s-8.6-10-8.5-16.3c0.1-9,9.7-14.3,17.3-19.1c5.7-3.5,10.9-7.7,15.5-12.5
	c2-1.8,3.6-4,4.8-6.4c1.6-3.5,1.5-7.5,1.4-11.4c-0.3-12.8-1-25.7-1.9-38.5"/>
<path class="st3" d="M862.4,552.8c-0.2-4.8-2.9-9.1-7-11.5l-3.1,6.2l0.1-7.5c-7.4-2.2-15.2,2-17.4,9.4c-0.5,1.5-0.7,3.1-0.6,4.7
	c0.4,7.7,6.9,13.7,14.7,13.3C856.8,567.1,862.7,560.6,862.4,552.8L862.4,552.8L862.4,552.8z"/>
<path class="st3" d="M837.4,647.8c-3.5,6.9-12,9.6-18.9,6c-6.9-3.5-9.6-12-6-18.9c3.5-6.9,12-9.6,18.9-6c3.1,1.6,5.5,4.3,6.7,7.6
	l-8.8,7.1l9.6-2.2C838.9,643.6,838.4,645.8,837.4,647.8z"/>
<path class="st3" d="M830.4,620.5c-7.7,0.4-14.3-5.6-14.7-13.3c0,0,0,0,0-0.1c-0.1-2.2,0.3-4.4,1.2-6.4c1.7-3.8,5-6.6,9-7.8
	l-0.1,5.8l3.2-6.3l0,0c7.7-0.4,14.3,5.6,14.7,13.4S838.2,620.2,830.4,620.5L830.4,620.5z"/>
<path class="st3" d="M864.5,597.8c-7.7,0.4-14.3-5.6-14.7-13.3c-0.4-7.7,5.6-14.3,13.3-14.7c2.6-0.1,5.2,0.5,7.5,1.8l-2.5,6.8
	l5.1-4.9c2.7,2.5,4.4,6,4.5,9.7c0.1,1.3-0.1,2.6-0.4,3.9C876.1,593.1,870.8,597.5,864.5,597.8z"/>
<path class="st4" d="M860.5,556.5c-3.2,0.4-6.4,1.4-9.6,1.6s-6.8-0.6-8.9-3.1c-1.1-1.4-1.7-3.1-2.6-4.6c-0.9-1.4-2.1-2.5-3.5-3.3
	c-3.3,7-0.4,15.3,6.6,18.7c7,3.3,15.3,0.4,18.7-6.6c0.4-0.9,0.8-1.8,1-2.8C861.6,556.4,861,556.5,860.5,556.5z"/>
<path class="st4" d="M864.5,597.8c-7.7,0.4-14.3-5.6-14.7-13.3c-0.1-2.3,0.3-4.6,1.3-6.7c1.1,0.8,2.1,1.7,2.8,2.8
	c1,1.5,1.6,3.2,2.8,4.6c2.2,2.6,5.9,3.4,9.3,3.2s6.7-1.1,10-1.4c0.5,0,0.9-0.1,1.4-0.1C876.1,593.1,870.8,597.5,864.5,597.8z"/>
<path class="st4" d="M830.4,620.5c-7.7,0.4-14.3-5.6-14.7-13.3c0,0,0,0,0-0.1c-0.1-2.2,0.3-4.4,1.2-6.4c1.2,0.8,2.2,1.7,3,2.8
	c1.1,1.5,1.8,3.3,3,4.7c2.4,2.6,6.3,3.6,9.9,3.5s6.8-0.9,10.3-1.2C841.5,616.3,836.4,620.3,830.4,620.5z"/>
<path class="st4" d="M837.4,647.8c-3.2,7.1-11.5,10.2-18.5,7c-7.1-3.2-10.2-11.5-7-18.5c1.2,0.8,2.2,1.7,3.1,2.8
	c1.3,1.6,2.2,3.5,3.8,5c2.9,2.8,7.5,4,11.6,4.1C832.6,648.2,835,648.1,837.4,647.8z"/>
<path class="st5" d="M802.3,668.5c0,0,11.1-0.3,14.4-2.7s17-5.2,17.9-1.4s16.7,19,4.1,19.1s-29.1-2-32.4-4S802.3,668.5,802.3,668.5z
	"/>
<path class="st6" d="M839,682.1c-12.5,0.1-29.1-2-32.4-4c-2.5-1.5-3.5-7.1-3.9-9.7h-0.4c0,0,0.7,8.9,4,11s19.9,4.1,32.4,4
	c3.6,0,4.9-1.3,4.8-3.2C843,681.3,841.7,682.1,839,682.1z"/>
<path class="st2" d="M194.4,644c-7.3-13.4,1-29.9,10.4-41.9s21-24.4,20.8-39.7c-0.4-21.9-23.6-34.9-42.2-46.5
	c-13.8-8.6-26.5-18.9-37.9-30.5c-4.6-4.7-9-9.7-11.7-15.6c-3.8-8.6-3.7-18.3-3.5-27.7c0.8-31.3,2.3-62.6,4.6-93.8"/>
<path class="st3" d="M99.5,346.5c0.6-11.6,7-22.2,17.1-28l7.7,15.1l-0.2-18.3c18.1-5.3,37.2,5,42.5,23.2c5.3,18.1-5,37.2-23.2,42.5
	c-18.1,5.3-37.2-5-42.5-23.2C99.8,354.1,99.4,350.3,99.5,346.5L99.5,346.5z"/>
<path class="st3" d="M160.6,578.1c8.6,16.8,29.2,23.4,46,14.8c10.9-5.6,18-16.6,18.5-28.8c0.2-4.7-0.5-9.5-2.2-13.9
	c-6.8-17.6-26.6-26.4-44.2-19.6c-9.1,3.5-16.3,10.8-19.8,20l21.4,17.4l-23.5-5.5C156.8,567.9,158.1,573.2,160.6,578.1z"/>
<path class="st3" d="M177.5,511.6c18.9,0.9,34.9-13.7,35.7-32.6c0.7-15.9-9.6-30.2-24.9-34.5l0.2,14.1l-7.7-15.3h-0.1
	c-18.9-0.9-34.9,13.7-35.8,32.6C144,494.7,158.6,510.8,177.5,511.6L177.5,511.6L177.5,511.6z"/>
<path class="st3" d="M94.4,456.4c18.9,0.9,34.9-13.6,35.8-32.5c0.9-18.9-13.6-34.9-32.5-35.8c-6.4-0.3-12.8,1.2-18.5,4.4l6,16.6
	l-12.4-12c-6.7,6.1-10.7,14.6-11.1,23.6c-0.2,3.2,0.1,6.3,0.9,9.4C66.2,444.9,79.1,455.7,94.4,456.4z"/>
<path class="st4" d="M104.2,355.6c7.9,0.9,15.6,3.3,23.5,3.8s16.6-1.4,21.6-7.6c2.7-3.3,4-7.5,6.3-11.1c2.2-3.4,5.1-6.2,8.6-8.1
	c8.5,16.9,1.7,37.5-15.2,45.9c-16.9,8.5-37.5,1.7-45.9-15.2c-1.3-2.5-2.2-5.2-2.8-8C101.6,355.4,102.9,355.5,104.2,355.6z"/>
<path class="st4" d="M94.4,456.4c18.9,0.9,34.9-13.7,35.8-32.6c0.3-5.6-0.9-11.1-3.2-16.2c-2.7,1.8-5.1,4.2-6.9,6.9
	c-2.4,3.7-3.9,7.9-6.8,11.3c-5.3,6.3-14.4,8.3-22.7,7.9s-16.2-2.7-24.4-3.5c-1.1-0.1-2.3-0.2-3.4-0.2
	C66.2,444.9,79.1,455.7,94.4,456.4z"/>
<path class="st4" d="M177.5,511.6c18.9,0.9,34.9-13.7,35.8-32.6c0.3-5.4-0.8-10.7-3-15.6c-2.8,1.9-5.3,4.2-7.2,7
	c-2.7,3.8-4.3,8.1-7.4,11.5c-5.8,6.4-15.5,8.7-24.2,8.5c-8.5-0.2-16.6-2.3-25-2.9C150.6,501.3,163.1,511,177.5,511.6z"/>
<path class="st4" d="M160.6,578.1c8.6,16.8,29.2,23.4,46,14.8c10.9-5.6,18-16.6,18.5-28.8c0.2-4.7-0.5-9.5-2.2-13.9
	c-2.8,1.8-5.3,4.1-7.5,6.7c-3.2,4-5.4,8.5-9.2,12.2c-7,6.9-18.3,9.7-28.3,10C172.1,579,166.3,578.7,160.6,578.1z"/>
<polygon class="st7" points="431.2,664 299.2,691 296.2,690.7 180.2,679 180.2,532 322.2,508 425.2,520 425.2,520.6 425.3,520.9 "/>
<polygon class="st4" points="431.2,664 299.2,691 296.2,690.7 296.2,540 425.2,520.6 "/>
<polygon class="st8" points="425.3,520.9 425.2,521 296.2,540 180.2,532 322.2,508 425.2,520 425.2,520.6 "/>
<polygon class="st1" points="576.2,670 444.2,697 441.2,696.7 325.2,685 325.2,538 467.2,514 570.2,526 570.2,526.6 570.3,526.9 "/>
<polygon class="st4" points="576.2,670 444.2,697 441.2,696.7 441.2,546 570.2,526.6 "/>
<polygon class="st8" points="570.3,526.9 570.2,527 441.2,546 325.2,538 467.2,514 570.2,526 570.2,526.6 "/>
<polygon class="st1" points="485.2,526 353.2,553 350.2,552.7 234.2,541 234.2,394 376.2,370 479.2,382 479.2,382.6 479.3,382.9 "/>
<polygon class="st4" points="485.2,526 353.2,553 350.2,552.7 350.2,402 479.2,382.6 "/>
<polygon class="st8" points="479.3,382.9 479.2,383 350.2,402 234.2,394 376.2,370 479.2,382 479.2,382.6 "/>
<polygon class="st1" points="560.2,532.1 491.3,546.2 489.8,546 429.2,539.9 429.2,463.2 503.3,450.7 557.1,457 557.1,457.3 
	557.1,457.5 "/>
<polygon class="st4" points="560.2,532.1 491.3,546.2 489.8,546 489.8,467.4 557.1,457.3 "/>
<polygon class="st8" points="557.1,457.5 557.1,457.5 489.8,467.4 429.2,463.2 503.3,450.7 557.1,457 557.1,457.3 "/>
<polygon class="st1" points="375.2,383.1 306.3,397.2 304.8,397 244.2,390.9 244.2,314.2 318.3,301.7 372.1,308 372.1,308.3 
	372.1,308.5 "/>
<polygon class="st4" points="375.2,383.1 306.3,397.2 304.8,397 304.8,318.4 372.1,308.3 "/>
<polygon class="st8" points="372.1,308.5 372.1,308.5 304.8,318.4 244.2,314.2 318.3,301.7 372.1,308 372.1,308.3 "/>
<polygon class="st7" points="496.2,380.1 427.3,394.2 425.8,394 365.2,387.9 365.2,311.2 439.3,298.7 493.1,305 493.1,305.3 
	493.1,305.5 "/>
<polygon class="st4" points="496.2,380.1 427.3,394.2 425.8,394 425.8,315.4 493.1,305.3 "/>
<polygon class="st8" points="493.1,305.5 493.1,305.5 425.8,315.4 365.2,311.2 439.3,298.7 493.1,305 493.1,305.3 "/>
<polygon class="st1" points="532.2,303.1 463.3,317.2 461.8,317 401.2,310.9 401.2,234.2 475.3,221.7 529.1,228 529.1,228.3 
	529.1,228.5 "/>
<polygon class="st4" points="532.2,303.1 463.3,317.2 461.8,317 461.8,238.4 529.1,228.3 "/>
<polygon class="st8" points="529.1,228.5 529.1,228.5 461.8,238.4 401.2,234.2 475.3,221.7 529.1,228 529.1,228.3 "/>
<path class="st9" d="M579.1,146.3c-0.7,6.5-5.7,11.7-7.5,18c-2.8,9.5,2,19.6,8.6,27c10.7,11.9,25.7,19,41.6,19.7
	c2.3,0.2,4.7-0.1,6.9-0.8c2-0.8,3.8-2,5.2-3.6c4.9-5,7.6-11.8,8.6-18.7s0.7-13.9,0.2-20.9c0-1.4-0.3-2.9-0.8-4.2
	c-0.7-1.3-1.6-2.4-2.7-3.3c-3.5-3.3-7.5-6.1-11.7-8.5c-1.8-1-3.7-2-4.9-3.7c-0.8-1.4-1.3-2.9-1.5-4.5l-1.3-6.6
	c-0.2-1.9-0.9-3.7-1.9-5.3c-2.3-3.1-6.6-3.5-10.4-3.6l-14-0.6c-4.3-0.2-10.1-1.4-14.3-0.6c-4,0.8-2.7,4.4-1.9,7.8
	C578.4,138,579,142.1,579.1,146.3z"/>
<path class="st4" d="M579.1,146.3c-0.7,6.5-5.7,11.7-7.5,18c-2.8,9.5,2,19.6,8.6,27c10.7,11.9,25.7,19,41.6,19.7
	c2.3,0.2,4.7-0.1,6.9-0.8c2-0.8,3.8-2,5.2-3.6c4.9-5,7.6-11.8,8.6-18.7s0.7-13.9,0.2-20.9c0-1.4-0.3-2.9-0.8-4.2
	c-0.7-1.3-1.6-2.4-2.7-3.3c-3.5-3.3-7.5-6.1-11.7-8.5c-1.8-1-3.7-2-4.9-3.7c-0.8-1.4-1.3-2.9-1.5-4.5l-1.3-6.6
	c-0.2-1.9-0.9-3.7-1.9-5.3c-2.3-3.1-6.6-3.5-10.4-3.6l-14-0.6c-4.3-0.2-10.1-1.4-14.3-0.6c-4,0.8-2.7,4.4-1.9,7.8
	C578.4,138,579,142.1,579.1,146.3z"/>
<path class="st10" d="M668,439l-5.9,65.1c-1.5,17.1-3.1,34.2-6.2,51.1c-1,5.8-2.3,11.6-3.7,17.3c-4.1,15.9-10,31.5-11.8,47.8
	c-0.1,0.5-0.1,1-0.2,1.4c-0.4,3.6-0.7,7.2-2,10.6c-1,2.5-2.4,4.8-3.4,7.2c-2,4.9-2.3,10.4-2.6,15.7c-7.2-4.1-15.1-6.8-23.3-8
	c-4-0.6-8.3-1-11-4c-3-3.3-2.7-8.2-2.2-12.6c1.6-13.6,3.1-27.2,4.7-40.8c0.5-5.8,1.5-11.6,3-17.3c0.5-1.9,1.2-3.8,1.8-5.6
	c0.9-2.6,1.8-5.1,2.5-7.8c1-4.2,1.6-8.5,2-12.8c1.6-13.7,3.5-27.3,5.2-41l0.1-0.7c2.5-20.7,4.5-41.5,3.9-62.4
	c-0.1-3.1-0.2-6.2-0.4-9.3c-0.3-4.5-0.7-6.9,3-9.7c4.1-3.1,9.5-5.3,14.2-7.3c2.5-1.1,30.4-11,31-8.8c1.3,4.6,2,9.4,2,14.2
	C668.9,427.3,668.7,433.2,668,439z"/>
<path class="st4" d="M655.9,555.2c-1,5.8-2.3,11.6-3.7,17.3c-4.1,15.9-10,31.5-11.8,47.8c-0.1,0.5-0.1,1-0.2,1.4
	c-12.4-17.7-22.9-36.8-35-54.8c0.9-2.6,1.8-5.1,2.5-7.8c1-4.2,1.7-8.6,2.1-12.9c1.6-13.7,3.5-27.3,5.2-41l0.1-0.7
	c0.7,2.9,1.7,5.7,3,8.4c8.1,16.5,27.5,24.9,36.9,40.7C655.4,554.3,655.7,554.8,655.9,555.2z"/>
<path class="st10" d="M555.2,409.8c0.4,13.3,2.5,26.4,4.7,39.5l4.4,27c2.4,14.8,4.9,29.9,11.9,43.1c5.2,9.9,12.8,18.4,19.6,27.3
	c16.8,21.9,29.4,46.6,45.3,69.1c4.6,6.5,11.2,13.6,19.1,12.2c5.2-0.9,8.9-5.2,13-8.5c4.8-3.9,10.6-6.8,14.4-11.7s4.5-13.1-0.6-16.6
	c-1.8-1.2-3.9-1.6-5.9-2.4c-7.9-3-13.1-10.8-16.3-18.6s-5.2-16.2-9.6-23.5c-9.5-15.8-28.8-24.2-37-40.7c-4.6-9.3-5-20-5.3-30.3
	l-0.9-26.3c-0.1-2.9-0.2-5.9,1-8.5c3.1-7,12.5-7.7,20.1-8.5c8.6-1,17-3.6,24.7-7.8c4.4-2.4,8.7-5.4,11-9.8c2.1-4,2.4-8.7,2.7-13.2
	l2.6-47.7c0.2-4.1,0.4-8.4-1-12.2c-3.6-9.7-15.8-12.8-26.1-12.4c-19.2,0.9-36.9,9.1-55,14.7c-4.5,1.4-9,2.6-13.6,3.5
	c-4,0.8-9,0.5-12.8,1.8c-6.9,2.3-6.7,17.4-7.7,23.6C555.7,385.1,554.9,397.5,555.2,409.8z"/>
<path class="st11" d="M657.5,630.1c1.7,1.7,2.2,4.2,2.7,6.6c2.4,13.1,3.7,26.4,3.8,39.7c-0.1,1.2,0.1,2.5,0.7,3.6
	c0.5,0.7,1.1,1.2,1.9,1.5c4.9,2.3,10.6-0.9,14.6-4.5c7.5-6.6,13.9-15.5,14.4-25.5c0.1-2.6-0.2-5.2,0.3-7.7c0.7-3.8,2.9-7.1,4.8-10.4
	c3.3-5.6,6-11.6,8-17.8c0.7-2.3,1.2-5.3-0.6-6.9c-0.6-0.5-1.4-0.9-2.2-1.1l-22.1-8.2c-1.9-0.7-6.7,11.5-7.4,12.9
	c-1.8,3.3-3.7,5.1-7.4,5.9s-8.3-0.3-11.8,1.5C651.1,622.8,654.1,626.7,657.5,630.1z"/>
<path class="st11" d="M623.4,637.7c-0.4-0.8-1-1.5-1.7-2.1c-1-0.7-2.2-1-3.4-1.2c-4.2-0.7-9.2-1.2-12.1,1.9c-2.7,2.9-2.2,7.7-4.5,11
	c-0.7,1-1.7,1.9-2.3,3c-0.8,1.7-1.1,3.5-1,5.4c-0.1,5.1-0.2,10.2,0.1,15.3c0.3,4.3,1,8.7,3.7,12.1c4.3,5.4,12,6.1,18.8,6.5l5.5,0.3
	c1.5,0.2,3.1,0,4.5-0.4c1.8-0.8,3.3-2.4,3.9-4.3c2.9-7.2-1.7-14.9-4.5-22.1C627.3,654.7,627.9,645.5,623.4,637.7z"/>
<path class="st1" d="M577.5,109.6c-0.1-0.7,0-1.5,0.3-2.1c0.8-1.4,2.9-1,4.5-0.6c6.4,1.6,13.2,0.1,19.8,0.5s14.1,3.7,15.4,10.2
	c4.8-3.4,9-7.7,12.2-12.6c1.8-2.8,3.4-5.9,3.2-9.2c-0.4-4.8-4.3-8.3-8-11.3l-11-9c-1.4-1.3-3.1-2.4-4.9-3.1c-2.5-0.9-5.3-0.4-8-0.4
	c-8,0-16.6-3.6-23.7,0c-3,1.5-5.2,4.2-7.4,6.7l-9.8,11.6c-0.7,0.7-1.3,1.7-1.6,2.7c-0.3,1.4,0.5,2.8,0.7,4.2
	c0.5,2.6-0.7,5.4,0.2,7.9c1.4,4.1,6.5,4.7,9.5,7.1c1.1,0.9,2.9,3.9,4.3,3.9C575.8,115.9,577.5,111.5,577.5,109.6z"/>
<circle class="st9" cx="594.2" cy="112.4" r="31.5"/>
<path class="st1" d="M601.6,181.4c-2.2-6.3-8.2-10.4-14.8-10.2c-0.9,0.2-1.9,0.1-2.7-0.4c-0.5-0.4-0.9-0.8-1.1-1.4
	c-1.9-3.4-3.4-7.1-4.6-10.9c-0.5-1.7-1.2-3.6-2.9-4.1c-1.4-0.4-2.8,0.5-3.7,1.6c-0.8,1.1-1.7,2.2-2.6,3.3c-4,3.5-11,0.3-15.2,3.6
	c-0.7,0.5-1.3,1.2-2,1.7c-0.7,0.4-1.5,0.8-2.3,1c-8.1,2.6-16.1,5.8-23.9,9.3c2.8,16.8,5.7,34,12.2,49.8c3.1,7.5,6.7,14.9,9.2,22.6
	c5.5,17.1,5.8,35.5,5.8,53.5c0,12.3,0,24.9-4,36.6c-0.9,2.6-2,5.3-2.2,8s0.6,5.8,2.8,7.5c1.3,0.9,2.8,1.4,4.3,1.5
	c6.9,1,13.9-0.8,20.7-2.4c18.2-4.2,36.8-6.6,55.4-9l31.1-4c2.2-0.2,4.4-0.7,6.4-1.7c5.7-3.1,6.2-11.7,2.7-17.1
	c-1.7-2.6-4.1-4.8-5.5-7.5s-1.5-6.6,0.9-8.5c5-3.9,3.5-11.1,3.7-17.5c0.7-17.7,0.6-35.3-0.3-53c-0.3-3.7-0.3-7.3-0.2-11
	c0.3-6.2,1.9-12.3,3.4-18.4l9.5-37.2c-2.5-3.9-7.2-6.4-11.7-7.5s-9.1-1.5-13.5-2.8c-9-2.8-17.1-9.9-26.5-9.2c-0.7,0-1.4,0.2-2.1,0.5
	c-2.1,1.2-1.8,4.3-1.9,6.7c-0.3,5.4-4.3,9.9-8.7,13.1s-9.4,5.5-13.4,9.1C602.6,178,601.7,179.6,601.6,181.4z"/>
<path class="st9" d="M476.8,216.7c-2.1,1.4-4.3,2.5-6.6,3.4c-2.2,0.9-4.5,1.6-6.3,3.1c-0.9,0.8-1.6,1.7-2.2,2.7
	c-3.3,5.8-1.2,13.2,4.6,16.5c2,1.1,4.3,1.7,6.6,1.5c2.9-0.1,5.6-1.3,8.3-2.5l22.2-9.7c3.8-1.6,7.8-3.5,9.6-7.2
	c0.2-0.3,0.3-0.8,0.2-1.1c-0.2-0.4-0.5-0.8-0.9-1c-5-3.3-9.4-7.4-12.9-12.2c-0.9-1.2-2-4.2-3.3-4.9
	C491.2,202.7,480.6,214.2,476.8,216.7z"/>
<path class="st9" d="M714.3,208.8l8.2,9.4c1.8,2,3.5,4,5.1,6.2c3.9,5.4,7.1,11.4,9.4,17.7c1.8,4.7,3.3,9.6,2.6,14.6
	c-0.4,2.5-1.1,5-2,7.4c-1.5,4.6-3.4,9.1-5.6,13.4c-1.8,3.3-3.9,6.4-6.2,9.4c-6.3,8.4-13.3,16.3-20.8,23.8c-2.8,2.8-4,7.3-5.2,11
	c-2.2,6.9-7.6,12.3-12.8,17.4c-1.7,1.8-3.5,3.3-5.5,4.7c-3,1.9-6.5,2.9-10,2.8c-1.5,0-3.1-0.3-4.5-0.9c-3.5-1.7-5.3-5.8-5.7-9.7
	c-0.3-3.5,0.3-7.1,1.7-10.4c4.7-10.4,16.8-14.9,25.3-22.5c5-4.5,8.8-10,12.6-15.6c2.6-3.5,4.7-7.2,6.4-11.2
	c1.9-5.1,1.2-11.1,2.8-16.3c0.7-2.2,2-4.2,2.7-6.3s1-4.7-0.4-6.6c-1-1.2-2.3-2.1-3.7-2.7c-5.5-2.8-11.5-6.3-12.6-12.4
	c-0.4-3.3,0.5-6.7,2.4-9.4c2-2.7,4.3-5.1,6.9-7.2C707.9,213.2,711.9,210.9,714.3,208.8z"/>
<path class="st9" d="M471.5,229.7c-1.4-2.9-3.2-5.9-6.2-7.4c-2.9-1.2-6.1-1.2-9,0c-2.8,1.2-5.5,2.8-7.9,4.8l-7.1,5.2
	c-1.6,1.1-3,2.4-4.2,3.9c-1.1,1.8-1.9,3.9-2.2,6c-1,4.9-1.8,9.9-1.1,14.8c1.1,8,5.9,14.9,11.2,21c3.3,3.8,7.4,7.6,12.4,7.8
	c2.2,0.1,4.6-0.8,5.5-2.8c0.3-0.8,0.5-1.6,0.5-2.5c0.5-8.9-2.6-17.5-6.3-25.6c-1-2.2-2.1-4.5-2-6.9c0-0.4,0.1-0.8,0.3-1.2
	c0.3-0.3,0.7-0.5,1.2-0.6c5.1-1,13.8,2.9,17.4-2.7C476.3,239.9,473.2,233,471.5,229.7z"/>
<path class="st1" d="M575.9,99.7c-0.1-0.7,0-1.5,0.3-2.1c0.8-1.4,2.9-1,4.5-0.6c6.4,1.6,13.2,0.1,19.8,0.5s14.1,3.7,15.4,10.2
	c4.8-3.4,8.9-7.7,12.2-12.6c1.8-2.8,3.4-5.9,3.2-9.2c-0.4-4.8-4.4-8.3-8-11.3l-11-9c-1.4-1.3-3.1-2.4-4.9-3.1
	c-2.5-0.9-5.3-0.4-8-0.4c-8,0-16.6-3.6-23.7,0c-3,1.5-5.2,4.2-7.4,6.7l-9.8,11.6c-0.7,0.7-1.3,1.7-1.6,2.7c-0.3,1.4,0.5,2.8,0.7,4.2
	c0.5,2.6-0.7,5.4,0.2,7.9c1.4,4.1,6.5,4.7,9.5,7.1c1.1,0.9,2.9,3.9,4.3,3.9C574.1,106,575.8,101.6,575.9,99.7z"/>
<path class="st1" d="M509,186c-1.3,0.8-2.4,1.9-3.3,3.1c-1.2,1.8-1.4,4-2.4,5.8c-2.1,3.9-7.1,5.4-10.2,8.6c-0.5,0.4-0.9,1-1,1.7
	c0,0.9,0.3,1.7,0.8,2.4l14.9,23.5c5,0.4,9.7-2.7,14.7-2.3c1.8,0.1,3.8,0.8,5.5,0.2c1.3-0.6,2.5-1.3,3.5-2.2c3-1.9,6.9-2.1,9.4-4.6
	s2.7-6.1,2.7-9.5c0-2.9-0.3-5.8-0.9-8.7c-2.2-9-9.1-15.9-13.4-23.9c-2.1-3.9-3.2-6.2-7.7-3.5S513.2,183,509,186z"/>
<path class="st1" d="M690.4,174.2c2.8,1.8,5.3,4,7.5,6.6c2.3,2.9,3.6,6.5,5.8,9.5s5,5.2,7.4,7.8c3.7,4.1,6.1,9,8.5,13.9
	c-5.9,7.7-12.4,15-19.3,21.8c-0.8,0.9-1.8,1.6-2.9,1.9c-1.6,0.2-3.1-0.5-4.1-1.7c-1.1-1.1-1.8-2.5-2.9-3.7c-2.4-2.5-5.7-4.1-9.1-4.4
	c-3.4-0.3-6.9-0.4-10.3-0.1c-0.8,0.1-1.5,0-2.2-0.4c-0.5-0.4-0.9-0.8-1.2-1.4c-4-6.9-2.8-15.5-1.3-23.4l3.3-18
	c0.5-3.4,1.4-6.8,2.7-10c1.2-2.6,4-7.1,7.4-6.4S687.5,172.1,690.4,174.2z"/>
<polygon class="st7" points="405.2,306.1 336.3,320.2 334.8,320 274.2,313.9 274.2,237.2 348.3,224.7 402.1,231 402.1,231.3 
	402.1,231.5 "/>
<polygon class="st4" points="405.2,306.1 336.3,320.2 334.8,320 334.8,241.4 402.1,231.3 "/>
<polygon class="st8" points="402.1,231.5 402.1,231.5 334.8,241.4 274.2,237.2 348.3,224.7 402.1,231 402.1,231.3 "/>
<polygon class="st1" points="441.2,230.1 372.3,244.2 370.8,244.1 310.2,237.9 310.2,161.2 384.3,148.7 438.1,155 438.1,155.3 
	438.1,155.5 "/>
<polygon class="st4" points="441.2,230.1 372.3,244.2 370.8,244.1 370.8,165.4 438.1,155.3 "/>
<polygon class="st8" points="438.1,155.5 438.1,155.5 370.8,165.4 310.2,161.2 384.3,148.7 438.1,155 438.1,155.3 "/>
</svg>
