<?xml version="1.0" encoding="utf-8"?>
<!-- Generator: Adobe Illustrator 25.1.0, SVG Export Plug-In . SVG Version: 6.00 Build 0)  -->
<svg version="1.1" id="a2525de1-ea14-4c9e-818b-1d269b9a5d3c"
	 xmlns="http://www.w3.org/2000/svg" xmlns:xlink="http://www.w3.org/1999/xlink" x="0px" y="0px" viewBox="0 0 787.1 428.1"
	 style="enable-background:new 0 0 787.1 428.1;" xml:space="preserve">
<style type="text/css">
	.st0{fill:#F2F2F2;}
	.st1{fill:#FFFFFF;}
	.st2{fill:#CCCCCC;}
	.st3{fill:#2F2E41;}
	.st4{fill:#FFB8B8;}
	.st5{fill:#A0616A;}
	.st6{fill:#2563EB;}
	.st7{fill:#3F3D56;}
	.st8{opacity:0.2;enable-background:new    ;}
	.st9{fill:#E6E6E6;}
	.st10{fill:#60A5FA;}
</style>
<path class="st0" d="M178.2,372.3c-0.2,17.2-1.4,34.4-3.8,51.5c-0.1,0.6-0.2,1.2-0.3,1.8l-161.2-0.9c-0.5-0.6-0.9-1.2-1.4-1.8
	c-1.5-2-2.9-4.1-4.2-6.2c-6.2-10.3-9.1-22.4-6.2-30.8l0.1-0.1c0.6-1.8,1.6-3.5,2.9-5c6.5-7.3,19.7-6.1,31.6-0.2
	c-10.7-11.7-19.2-26.5-19.9-39.7c-0.6-12.9,6.1-22.1,13.4-29.9c0.2-0.3,0.5-0.5,0.7-0.8c0.1-0.1,0.2-0.3,0.4-0.4
	c5.7-6,12.3-11.8,22-11.1c10.6,0.8,22.3,9.6,30.5,19.9s13.7,22,19.2,33.4c5.5,11.4,11.5,23.1,20.4,32.8
	c-12-15.2-21.7-32.5-25.3-49.3s-0.4-33,10.3-40.9c3.3-2.3,7-3.9,11-4.4c0.5-0.1,0.9-0.1,1.4-0.2c9.9-1.1,21.8,2.3,31.8,10.5
	c11.1,9,18.8,22.4,22.6,35.1C177.9,348.2,178.3,360.5,178.2,372.3z"/>
<path class="st1" d="M72.7,425h-3.1c-1-0.6-2-1.2-3-1.8c-0.6-0.4-1.2-0.8-1.8-1.1c-10.2-6.2-20.5-12.2-30.9-18
	c-10.3-5.7-20.7-11.2-31.2-16.4c-0.6-0.2-0.9-0.9-0.7-1.5c0,0,0-0.1,0.1-0.1c0.1-0.3,0.5-0.4,0.9-0.2c1.3,0.6,2.6,1.3,3.9,1.9
	c10.5,5.3,20.9,10.9,31.3,16.7c10.4,5.8,20.7,11.9,31,18.3c0.2,0.1,0.4,0.3,0.6,0.4C70.8,423.8,71.7,424.4,72.7,425z"/>
<path class="st1" d="M112.5,425.2h-1.9c-0.4-0.6-0.9-1.2-1.3-1.8C99.2,409.2,89.1,395,79,380.9c-16.5-23.2-33.1-46.4-49.6-69.6
	c-0.1-0.1-0.2-0.3-0.2-0.4c-0.1-0.5,0.2-0.8,0.7-0.8c0.4,0.1,0.8,0.3,1,0.6c9.3,13,18.5,26,27.8,39c16.4,23.1,32.9,46.1,49.3,69.2
	c1,1.5,2.1,2.9,3.1,4.4C111.6,424,112,424.6,112.5,425.2z"/>
<path class="st1" d="M154.9,414.1c-0.1,3.2-0.3,6.4-0.6,9.5c-0.1,0.6-0.1,1.2-0.2,1.8h-2c0.1-0.6,0.1-1.2,0.2-1.8
	c0.4-4.5,0.7-9.1,0.8-13.8c0.1-13-1.2-26-3.8-38.8c-2.7-13.8-6.7-27.2-11.7-40.3c-5.3-13.8-11.8-27.1-19.2-39.9
	c-0.1-0.2-0.2-0.5-0.2-0.7c0.1-0.6,0.8-0.7,1.4-0.2c0.1,0.1,0.2,0.2,0.3,0.4c0.9,1.6,1.8,3.2,2.7,4.8c7.2,12.8,13.3,26.2,18.4,40
	c4.8,13.1,8.5,26.6,10.9,40.4C154.2,388.2,155.2,401.2,154.9,414.1z"/>
<path class="st2" d="M713.4,331.6c0-7.7-29.1-14-65-14s-65,6.3-65,14c0,5,12,9.3,30,11.8v76.7c0,3.6,2.9,6.5,6.5,6.5
	s6.5-2.9,6.5-6.5v-75.3c6.9,0.5,14.3,0.8,22,0.8s15.1-0.3,22-0.8v75.3c0,3.6,2.9,6.5,6.5,6.5s6.5-2.9,6.5-6.5v-76.7
	C701.4,340.9,713.4,336.6,713.4,331.6z"/>
<circle class="st3" cx="655.6" cy="175.5" r="28"/>
<polygon class="st4" points="585.9,415 573.6,415 567.8,367.7 585.9,367.7 "/>
<path class="st3" d="M564.9,411.5h23.6l0,0v14.9l0,0H550l0,0l0,0C550,418.2,556.7,411.5,564.9,411.5z"/>
<polygon class="st4" points="566.8,408.2 555.1,404.5 563.7,357.7 580.9,363.1 "/>
<path class="st3" d="M547.8,398.6l22.6,7.1l0,0l-4.5,14.2l0,0l-36.8-11.5l0,0l0,0C531.6,400.5,539.9,396.1,547.8,398.6L547.8,398.6z
	"/>
<path class="st3" d="M570.8,389.3c-0.5,0-1.1-0.1-1.6-0.3l-9-3.4c-2.1-0.8-3.3-3-2.8-5.2c2.3-10.2,10-45,14.2-63.6
	c5-22.1,78.3-26.2,81.5-26.4h0.3l8.2,10.4c3,9.6,2,17.1-2.8,22.2c-14.1,15-56.3,5.7-61.4,4.5L575,386.4
	C574.3,388.2,572.6,389.3,570.8,389.3z"/>
<path class="st3" d="M583.8,396.3c-0.5,0-1.1-0.1-1.6-0.3l-9-3.4c-2.1-0.8-3.3-3-2.8-5.2c2.3-10.2,10-45,14.2-63.6
	c5-22.1,78.3-26.2,81.5-26.4h0.3l8.2,10.4c3,9.6,2,17.1-2.8,22.2c-14.1,15-56.3,5.7-61.4,4.5L588,393.4
	C587.3,395.2,585.6,396.3,583.8,396.3z"/>
<path class="st5" d="M557.7,252.3c0.3,0.4,0.6,0.9,0.9,1.4l49.3,5.2l7.1-9.7l16.1,8.8l-13.9,23.6l-60.5-15.4c-4.2,4-10.8,4-14.8-0.2
	s-4-10.8,0.2-14.8s10.8-4,14.8,0.2C557.1,251.6,557.4,252,557.7,252.3L557.7,252.3z"/>
<path class="st6" d="M672.3,311.8c-0.7,0-1.4-0.2-2-0.5c-9.9-5-29.1-13.7-46.9-15.5c-1.2-0.1-2.4-0.8-3.1-1.8
	c-0.8-1-1.1-2.3-0.8-3.5c1.6-8.9,5.3-31.5,4.8-49.7c-0.3-11.5,7.4-21.7,18.6-24.5l0,0c3.3-0.9,6.6-1.5,9.9-2
	c13.6-1.7,26,7.9,27.7,21.5c0.3,2.4,0.3,4.9-0.2,7.3c-3.2,18.8-6.4,45.1-3.6,63.4c0.3,1.7-0.4,3.4-1.8,4.3
	C674.1,311.5,673.2,311.8,672.3,311.8z"/>
<path class="st6" d="M625.2,263.9c-0.6,0-1.2-0.1-1.8-0.4l-12.8-5.6c-2.3-1-3.3-3.6-2.3-5.9l9.9-22.9c2.5-5.8,9.3-8.5,15.1-6
	s8.5,9.3,6,15.1l0,0l-9.9,22.9C628.6,262.9,626.9,263.9,625.2,263.9L625.2,263.9z"/>
<circle class="st4" cx="654.6" cy="182" r="24.6"/>
<path class="st3" d="M629.6,170c11.6,7.1,24.7,11.4,38.3,12.6l-4-4.8c2.9,1.1,6,1.7,9.2,1.8c3.1,0,6.4-1.3,8.2-3.8
	c1.6-2.6,1.8-5.8,0.6-8.6s-3.1-5.2-5.6-7c-8.7-6.9-20.3-9-30.8-5.5c-3.6,1.1-6.8,3.1-9.2,5.9c-2.3,2.9-6.8,5.4-5.6,8.9L629.6,170z"
	/>
<path class="st4" d="M613.3,305.5c-6.1,0-11-4.9-11-11s4.9-11,11-11c1.4,0,2.9,0.3,4.2,0.8l0,0c0.5,0.2,0.9,0.4,1.3,0.7l44.7-20.1
	l1.3-12.1l19.3-0.5l-0.1,20.2c0,4.8-3.2,9-7.9,10.3l-52.3,14.9c-0.1,0.3-0.2,0.7-0.4,1C621.7,302.8,617.7,305.5,613.3,305.5
	L613.3,305.5z"/>
<path class="st6" d="M682.5,262.1c-0.5,0.3-1.1,0.4-1.8,0.5l-14,0.9c-2.5,0.1-4.6-1.7-4.8-4.2l-1.5-25c-0.4-6.3,4.4-11.8,10.7-12.2
	s11.8,4.4,12.2,10.7l0,0l1.5,25C685,259.6,684.1,261.3,682.5,262.1L682.5,262.1z"/>
<path class="st7" d="M652.1,308h-79c-1.9,0-3.5-1.6-3.5-3.5l0,0c0-1.9,1.6-3.5,3.5-3.5h79c1.9,0,3.5,1.6,3.5,3.5l0,0
	C655.6,306.4,654,308,652.1,308z"/>
<path class="st7" d="M538.6,301.5v-49c0-3.6,2.9-6.5,6.5-6.5h89c3.6,0,6.5,2.9,6.5,6.5v49c0,3.6-2.9,6.5-6.5,6.5h-89
	C541.5,308,538.6,305.1,538.6,301.5z"/>
<circle class="st1" cx="589.6" cy="277" r="6"/>
<path class="st4" d="M276.8,219.3c-3.1-4.6-9.3-5.9-13.9-2.8c-0.5,0.3-1,0.7-1.4,1.1l-31.8-16.4l2,18.5l29.9,12.7
	c4.1,3.8,10.5,3.5,14.3-0.6C279,228.4,279.4,223.2,276.8,219.3L276.8,219.3z"/>
<path class="st2" d="M248.6,226.8c-1.2,0.5-2.5,0.5-3.7,0l-30.2-13.1c-10.3-4.5-18.7-12.5-23.5-22.7l-15.9-33.5
	c-4.9-6.3-3.8-15.4,2.5-20.3c6.3-4.9,15.4-3.8,20.3,2.5l0,0l27.9,51.7l25.7,19.4c1.5,1.1,2.1,3.1,1.6,4.9L251,224
	c-0.3,0.9-0.8,1.6-1.5,2.2C249.2,226.4,248.9,226.6,248.6,226.8z"/>
<circle class="st4" cx="174.7" cy="93.6" r="24.6"/>
<polygon class="st4" points="184.7,415.8 196.9,415.8 202.8,368.5 184.7,368.5 "/>
<path class="st3" d="M220.6,427.2h-38.5l0,0v-14.9l0,0h23.6C213.9,412.3,220.6,419,220.6,427.2L220.6,427.2L220.6,427.2z"/>
<polygon class="st4" points="144.7,415.8 156.9,415.8 162.8,368.5 144.7,368.5 "/>
<path class="st3" d="M180.6,427.2h-38.5l0,0v-14.9l0,0h23.6C173.9,412.3,180.6,419,180.6,427.2L180.6,427.2L180.6,427.2z"/>
<path class="st3" d="M140.4,402.3c-0.9-1-1.2-2.3-1.1-3.6l21.5-161l53.3,9.1l5.7-3.4l-14.7,152.7c-0.3,2.1-2,3.8-4.1,4l-16.1,1.3
	c-2.5,0.2-4.7-1.6-4.9-4.1c0-0.2,0-0.4,0-0.6l4.2-72.7c0-0.3-0.2-0.5-0.5-0.5c-0.2,0-0.5,0.1-0.5,0.4l-20.7,76.7
	c-0.5,2-2.3,3.3-4.3,3.3h-14.4C142.5,403.8,141.2,403.3,140.4,402.3z"/>
<path class="st2" d="M177.3,249c-1.3-1.1-3.2-1.2-4.5-0.2l-10.7,8.3c-2,1.5-4.8,1.2-6.3-0.8c-0.4-0.5-0.6-1-0.8-1.5
	c-5.2-18.3-17.1-64.4-14.2-96.9c1.7-18.4,17.5-32.4,35.4-31.2c12.2,0.8,20.3,7.9,23.9,20.9c8.9,32.1,18.7,91,20.6,102.5
	c0.3,1.8-0.5,3.6-2.1,4.6c-5,3-10.8,4.7-16.7,4.7C194.8,259.5,186.3,257,177.3,249z"/>
<path class="st4" d="M181.3,260.4c0.5-5.5-3.7-10.4-9.2-10.8c-0.6,0-1.2,0-1.8,0l-14.9-32.5l-9.8,15.7l15.6,28.4
	c0.9,5.5,6.1,9.3,11.6,8.4C177.5,268.9,181,265.1,181.3,260.4L181.3,260.4z"/>
<path class="st2" d="M154.5,248.9c-1.2-0.3-2.3-1.1-2.9-2.2l-15.6-29c-5.4-9.9-6.9-21.4-4.5-32.3l8.2-36.1c0-8,6.5-14.5,14.6-14.4
	c8,0,14.5,6.5,14.4,14.6l0,0l-10,57.9l8.3,31.2c0.5,1.8-0.2,3.8-1.8,4.9l-7,4.9c-0.8,0.5-1.6,0.8-2.6,0.8
	C155.2,249,154.9,249,154.5,248.9z"/>
<polygon class="st8" points="166.7,173.8 157.7,211.8 170.7,243.8 161.7,212.8 "/>
<path class="st3" d="M160.7,113.8c-2.2,0-4.4-0.4-6.4-1.2c-0.9-0.3-1.8-0.6-2.7-1c-7.9-3-13.1-11.4-13.3-19.9s4.2-16.6,10.7-22
	s14.9-8.2,23.3-8.8c9.1-0.7,19.3,1.6,24.4,9.2c1.3,2,2.3,4.5,1.5,6.9c-0.2,0.7-0.7,1.4-1.2,1.9c-2.3,2-4.5,0.5-6.8,0.4
	c-3.2-0.2-6,2.4-7,5.4s-0.6,6.3,0.3,9.4c0.6,1.8,1,3.8,1.2,5.7c0.1,2-0.8,3.9-2.4,5.1c-2,1.2-4.6,0.5-6.6-0.7s-3.7-2.9-5.8-3.7
	s-5-0.7-6.3,1.3c-0.4,0.7-0.7,1.5-0.8,2.3C161.6,109,161.8,108.7,160.7,113.8L160.7,113.8z"/>
<path class="st9" d="M373.6,197.2c-0.8-1-1.1-2.4-0.8-3.7c3.7-15.6,3.7-31.9,0-47.5c-0.3-1.3,0-2.7,0.8-3.7s2-1.6,3.4-1.6h39.9
	c2.1,0,3.9,1.5,4.2,3.6c2.6,16.9,2.6,34.1,0,51c-0.3,2.1-2.1,3.6-4.2,3.6H377C375.7,198.8,374.5,198.2,373.6,197.2z"/>
<path class="st9" d="M312,56.6c-0.8-1-1.1-2.4-0.8-3.7c3.7-15.6,3.7-31.9,0-47.5c-0.3-1.3,0-2.7,0.8-3.7s2-1.6,3.4-1.6h39.9
	c2.1,0,3.9,1.5,4.2,3.6c2.6,16.9,2.6,34.1,0,51c-0.3,2.1-2.1,3.6-4.2,3.6h-39.9C314,58.2,312.8,57.6,312,56.6z"/>
<path class="st6" d="M410.1,103.6c-2.6-16.9-2.6-34.1,0-51c0.3-2.1,2.1-3.6,4.2-3.6h39.9c1.3,0,2.5,0.6,3.4,1.6
	c0.8,1,1.1,2.4,0.8,3.7c-3.7,15.6-3.7,31.9,0,47.5c0.3,1.3,0,2.7-0.8,3.7s-2,1.6-3.4,1.6h-39.9C412.2,107.2,410.4,105.7,410.1,103.6
	z"/>
<path class="st10" d="M243.2,101.8c-2.6-16.9-2.6-34.1,0-51c0.3-2.1,2.1-3.6,4.2-3.6h39.9c1.3,0,2.5,0.6,3.4,1.6
	c0.8,1,1.1,2.4,0.8,3.7c-3.7,15.6-3.7,31.9,0,47.5c0.3,1.3,0,2.7-0.8,3.7s-2,1.6-3.4,1.6h-39.9C245.3,105.4,243.5,103.9,243.2,101.8
	z"/>
<path class="st6" d="M253,219.5c-0.8-1.1-1.1-2.5-0.8-3.8c3.8-15.9,3.8-32.4,0-48.3c-0.3-1.3,0-2.7,0.8-3.8c0.8-1,2.1-1.7,3.4-1.7
	H297c2.1,0,4,1.6,4.3,3.7c2.6,17.2,2.6,34.6,0,51.8c-0.3,2.1-2.2,3.7-4.3,3.7h-40.5C255.1,221.1,253.8,220.5,253,219.5z"/>
<path class="st7" d="M12.6,428.1h773.3c0.7,0,1.2-0.5,1.2-1.2s-0.5-1.2-1.2-1.2l0,0H12.6c-0.7,0-1.2,0.5-1.2,1.2
	S11.9,428.1,12.6,428.1L12.6,428.1L12.6,428.1z"/>
<path class="st1" d="M289.1,183.8h-21.3c-1.7,0-3-1.3-3-3v-1.3c0-1.7,1.3-3,3-3h21.3c1.7,0,3,1.3,3,3v1.3
	C292.1,182.5,290.8,183.8,289.1,183.8z"/>
<path class="st1" d="M289.1,196.4h-21.3c-1.7,0-3-1.3-3-3v-1.3c0-1.7,1.3-3,3-3h21.3c1.7,0,3,1.3,3,3v1.3
	C292.1,195,290.8,196.4,289.1,196.4z"/>
<path class="st1" d="M275,71.9h-20.9c-1.7,0-3-1.3-3-3v-1.2c0-1.7,1.3-3,3-3H275c1.7,0,3,1.3,3,3v1.2C278,70.6,276.7,71.9,275,71.9z
	"/>
<path class="st1" d="M408.7,160h-20.9c-1.7,0-3-1.3-3-3v-1.2c0-1.7,1.3-3,3-3h20.9c1.7,0,3,1.3,3,3v1.2
	C411.7,158.7,410.3,160,408.7,160z"/>
<path class="st1" d="M408.7,174.9h-20.9c-1.7,0-3-1.3-3-3v-1.2c0-1.7,1.3-3,3-3h20.9c1.7,0,3,1.3,3,3v1.2
	C411.7,173.5,410.3,174.9,408.7,174.9z"/>
<path class="st1" d="M408.7,189.7h-20.9c-1.7,0-3-1.3-3-3v-1.2c0-1.7,1.3-3,3-3h20.9c1.7,0,3,1.3,3,3v1.2
	C411.7,188.3,410.3,189.7,408.7,189.7z"/>
<path class="st1" d="M275,84.3h-20.9c-1.7,0-3-1.3-3-3v-1.2c0-1.7,1.3-3,3-3H275c1.7,0,3,1.3,3,3v1.2C278,82.9,276.7,84.3,275,84.3z
	"/>
<path class="st1" d="M347.2,21.9h-20.9c-1.7,0-3-1.3-3-3v-1.2c0-1.7,1.3-3,3-3h20.9c1.7,0,3,1.3,3,3v1.2
	C350.2,20.6,348.8,21.9,347.2,21.9z"/>
<path class="st1" d="M442.6,74.9h-20.9c-1.7,0-3-1.3-3-3v-1.2c0-1.7,1.3-3,3-3h20.9c1.7,0,3,1.3,3,3v1.2
	C445.6,73.6,444.3,74.9,442.6,74.9z"/>
</svg>
