<?xml version="1.0" encoding="utf-8"?>
<!-- Generator: Adobe Illustrator 25.1.0, SVG Export Plug-In . SVG Version: 6.00 Build 0)  -->
<svg version="1.1" id="a4b4d3ba-298a-4a01-b7c2-bf784b737cdf"
	 xmlns="http://www.w3.org/2000/svg" xmlns:xlink="http://www.w3.org/1999/xlink" x="0px" y="0px" viewBox="0 0 759.5 640.5"
	 style="enable-background:new 0 0 759.5 640.5;" xml:space="preserve">
<style type="text/css">
	.st0{fill:#E6E6E6;}
	.st1{fill:#FFFFFF;}
	.st2{fill:#DDDDDD;}
	.st3{fill:#A06168;}
	.st4{fill:#2F2E41;}
	.st5{fill:#2D3856;}
	.st6{opacity:0.1;enable-background:new    ;}
	.st7{fill:#FBBFBE;}
</style>
<rect x="11.6" y="0.4" class="st0" width="699.3" height="447.9"/>
<rect x="31.6" y="56.6" class="st1" width="659.3" height="365.2"/>
<rect x="11.3" class="st2" width="699.3" height="29.7"/>
<circle class="st1" cx="33.4" cy="15.2" r="5.5"/>
<circle class="st1" cx="54.3" cy="15.2" r="5.5"/>
<circle class="st1" cx="75.2" cy="15.2" r="5.5"/>
<polygon class="st3" points="747.9,576.8 753.1,597.4 730.5,603.5 728.4,582 "/>
<polygon class="st3" points="665.7,602.5 665.7,622 643.1,626.2 639,615.9 647.2,598.4 "/>
<path class="st4" d="M710.9,389.8l-3.1,27.8l2.1,53.4c0,0,0,5.1,3.1,7.2c1.7,1.1,38,102.8,38,102.8s-8.2,10.3-23.6,7.2l-3.1-10.3
	c0,0-4.1-13.4-6.2-16.4s-32.9-65.8-32.9-65.8l-14.4-25.7l-4.1,34.9c0,0,8.2,44.2,6.2,64.8s-6.2,42.1-6.2,42.1l-24.7-4.1
	c-0.1-3.3-1.2-6.5-3.1-9.3c-3.1-4.1-2.1-18.5-2.1-18.5v-3.1l-6.2-79.1l-11.3-103.8L710.9,389.8z"/>
<circle class="st3" cx="641" cy="174.9" r="27.8"/>
<polygon class="st3" points="665.2,175.4 676.5,203.2 649.8,222.7 633.3,193.9 "/>
<path class="st5" d="M666.7,196.5l10.3-5.1l6.2,14.4c0,0,40.1,12.3,37,68.9s-10.3,78.1-10.3,78.1s17.5,37,7.2,41.1
	s-97.6,19.5-99.7,5.1s7.2-98.7,7.2-98.7s-3.1-60.6,22.6-73l-5.1-11.3L666.7,196.5z"/>
<path class="st3" d="M610.2,395.9c0,0-23.6,24.7-10.3,30.8s21.6-27.8,21.6-27.8L610.2,395.9z"/>
<path class="st4" d="M658.5,616.9l11.3-4.1c0,0,12.3,27.8,2.1,27.8h-26.7c0,0-15.4-5.1-23.6-5.1s-23.6-15.4-12.3-22.6
	s25.7-5.1,25.7-5.1l4.1-9.3l5.1,14.4C644.1,612.8,650.3,623.1,658.5,616.9z"/>
<path class="st4" d="M741.8,594.3c0,0,6.4-4.1,9.9-2.5s5.5,18,5.5,18s10.3,12.3-12.3,14.4s-27.8-2.1-29.8-8.2s2.1-12.3,2.1-12.3
	l6.2-2.1c0,0,7.2-5.1,5.1-7.2s0-6.2,0-6.2S735.6,602.5,741.8,594.3z"/>
<path class="st4" d="M650.5,174.5c-0.1-0.9-0.3-1.8-0.6-2.6c-1.5-3.1-7.3-2.2-8.3-5.5c-0.2-0.6-0.2-1.4-0.4-2
	c-0.5-1.7-2.5-2.5-4.2-2.4c-1.7,0.2-3.4,0.7-5,1.3c-4.1,1.2-8.4,0.7-12.6,0.3c-1.9-0.1-3.7-0.5-5.4-1.4c-1.6-1-2.7-3-2.2-4.7
	c0.6-1.7,2.4-2.6,3.3-4.2c1.3-2.5-0.3-5.8,0.8-8.4c1.7-4.2,8.3-3.4,11.6-6.5c0.8-0.8,1.4-1.7,2.2-2.5c2.3-2.3,5.9-2.8,9.2-2.5
	s6.5,1.3,9.8,1.2c3.1-0.1,6.4-1,9.3,0.2c1.7,0.9,3.2,2.1,4.3,3.6l7.4,8.1c1,1,1.8,2.1,2.3,3.4c0.4,1.5,0,3.2,0.2,4.8
	c0.4,3.6,3.8,6.4,4.3,10c0.1,1.1,0,2.3-0.2,3.4l-1,7.6c-0.1,0.7-0.2,1.5-0.6,2.1c-0.3,0.5-0.8,0.9-1.1,1.4c-1,1.4-0.9,3.2-1.3,4.8
	c-0.5,1.6-2.2,3.2-3.7,2.4c-1-0.5-1.6-4.7-2.8-5.8c-1.6-1.5-2.5-1.3-4.5-1.3C657.2,179.3,651.8,179.7,650.5,174.5z"/>
<path class="st5" d="M655.4,234.5c0,0,30.8,12.3,21.6,40.1s-33.9,113.1-33.9,113.1l-14.4,7.2l-4.1,11.3l-19.5-7.2l3.1-15.4l7.2-15.4
	L633.8,253C633.8,253,633.8,233.5,655.4,234.5z"/>
<polygon class="st6" points="678.6,280.3 646.7,389.2 633.3,402.6 641,388.7 "/>
<path class="st7" d="M51.2,297.9l6,42.7L82.6,386c7.3,6.7,0.7,22.7,0.7,22.7l-6.7-4.7l-1.3-8c0,0-29.4-33.4-36.7-41.4
	s-10-52.1-10-52.1L51.2,297.9z"/>
<path class="st7" d="M29.1,587.6c0,0,1.3,15.4,0.7,19.4s-20.7-0.7-20.7-0.7c3.3-6.7,5.3-26.7,5.3-26.7L29.1,587.6z"/>
<path class="st7" d="M128.6,591.6c0,0,2,21.4,1.3,25.4s-20.7-0.7-20.7-0.7c3.3-6.7,5.3-26.7,5.3-26.7L128.6,591.6z"/>
<circle class="st7" cx="87.6" cy="224.9" r="24.3"/>
<path class="st7" d="M91.8,247.8c-4,5.3-2,14.7-2,14.7s-40.7,47.4-48.1,47.4s-6-33.4-6-33.4s10.7-12.7,16.7-15.4
	s16.7-31.4,16.7-31.4S95.8,242.5,91.8,247.8z"/>
<path class="st4" d="M119.2,338.6l26.1,43.9c4.8,7.8-4.1,47.6-4.1,47.6l-4,84.8l-6.7,85.4v9.3l-22-0.7l-7.3-91.4l-10.7-68.8
	l-17.4,52.7l-28.7,64.8c-2.5,8-5.5,15.8-9,23.4l-5.3,9.3l-20-2.3l30.4-102.5l6-66.8c0.7-37.4,12.7-58.1,12.7-58.1v-8L119.2,338.6z"
	/>
<path class="st4" d="M27.8,603.7c0,0,3.3-5.3,3.3-3.3s8.7,7.3,8.7,7.3s8.7-1.3,10,8.7s-12,12-15.4,11.3s-12,0.7-12,0.7
	s-6.7,1.3-17.4,0s-1.3-19.4,0-22.7s8-0.7,8-0.7C25.1,608.3,27.8,603.7,27.8,603.7z"/>
<path class="st4" d="M127.9,613.7c0,0,3.3-5.3,3.3-3.3s8.7,7.3,8.7,7.3s8.7-1.3,10,8.7s-12,12-15.4,11.3s-12,0.7-12,0.7
	s-6.7,1.3-17.4,0s-1.3-19.4,0-22.7s8-0.7,8-0.7C125.2,618.3,127.9,613.7,127.9,613.7z"/>
<path class="st5" d="M81.8,261.9c16.7-17.4,34.7,26,34.7,26s6,16,1.3,24.7s4.7,28,4.7,28c-22.9,19.5-45.6,37.5-66.8,24.7
	c2.7-16-6-24-12-39.4s-17.4-12-17.4-12s0.7-17.4,2.7-31.4s20-19.3,20-19.3C52.4,269.1,65.1,279.2,81.8,261.9z"/>
<path class="st7" d="M111.2,289.9l6,42.7l25.4,45.4c7.3,6.7,0.7,22.7,0.7,22.7l-6.7-4.7l-1.3-8c0,0-29.4-33.4-36.7-41.4
	s-10-52.1-10-52.1L111.2,289.9z"/>
<path class="st5" d="M115.2,296.6l-28,3.3c0,0-2-32.7,2.2-40.9s19.8,0.8,19.8,0.8C113.2,260.5,115.2,296.6,115.2,296.6z"/>
<path class="st4" d="M114.8,210.8c-18,9-7.6,33.5-9.7,43.8c-3.5,16.8-54.7,8.3-54.7,8.3c-6.2-1.1-10-70.4,24.1-69.8
	C91.7,193.4,130.2,203.2,114.8,210.8z"/>
<ellipse class="st7" cx="103.9" cy="228.1" rx="2.5" ry="4"/>
<path class="st0" d="M202.2,142.6c26.4,4.9,53.3,0,79.6-3.3l79.9-10c3.2-0.4,7.9-2.3,9.8,1.6c1.1,2.2,0.3,7,0.4,9.5
	c0.2,7,0.2,14,0,21c-0.4,13.4-1.3,26.7-2.6,40c-2.4,26.1-5.9,52-7.6,78.2c-0.9,13.3-1.3,26.7-0.9,40c0.1,3.2,0.2,6.4,0.4,9.5
	c0.2,3.5,1.8,8.8-2.1,11.2c-2.2,1.4-6.6,1.3-9.1,1.7c-4,0.6-8,1.1-12.1,1.5c-26.9,2.7-54.1,1.6-81.1,1.4l-81.5-0.4l-19.9-0.1
	c-1.8,0-8.3,1.1-9.4-1.1c-0.5-0.9,0.8-5.2,1-6.3c0.3-1.9,0.6-3.8,1-5.6c2.3-13.1,5.1-26.2,7.8-39.3c5.9-28,12-56.1,14.4-84.7
	c1.2-14.4,0.4-28.8,1.9-43.1c0.7-6.6,1.5-21.5,10.4-22.1c7.5-0.5,15.2,0,22.7,0c0.8,0,1.5-0.7,1.5-1.5s-0.7-1.5-1.5-1.5
	c-7.1,0-14.2-0.2-21.3,0c-4.7,0.1-8,1.2-10.2,5.5c-5.8,11.1-5.2,26-5.3,38.2c-0.4,29.1-4.9,57.6-10.7,86.1c-2.9,14.3-6.1,28.6-9,43
	c-1.4,6.9-2.7,13.7-3.9,20.6c-0.6,3.3-3.4,10.5-0.9,13.5s10.1,1.4,13.6,1.4l23.9,0.1l45.7,0.3c29.5,0.2,59.2,1,88.7,0.1
	c14.1-0.4,29-1,42.7-4.4c4.1-1,6.1-2.9,6.2-7.2c0.2-6.8-0.9-13.7-1-20.5c-1-58.1,12.7-115.4,11.2-173.5c-0.1-4,1.4-13.9-2.9-16.3
	c-1.9-1.1-4.5-0.5-6.5-0.2c-3.9,0.4-7.8,1-11.7,1.5l-50.7,6.3c-16.2,2-32.4,4.2-48.6,6c-17.2,2-34.5,3.2-51.6,0
	c-1.9-0.4-2.7,2.5-0.8,2.9L202.2,142.6z"/>
<path class="st0" d="M170.3,177.9l199.8-9.8c1.9-0.1,1.9-3.1,0-3l-199.8,9.8C168.4,175,168.4,178,170.3,177.9z"/>
<path class="st0" d="M231.9,153.2c-1.9,2-1.8,5.2,0.2,7.1c0.5,0.4,1,0.8,1.6,1c2.7,1.2,5.9,0.2,8.5-0.5c4-1,8-1.9,12.1-2.6
	c8.9-1.6,18-2.4,27.1-2.5c4.1,0,8.2,0.1,12.4,0.3c3,0.1,6.2,0.4,8.8-1.5c2.9-2.1,3.8-6.3,1-8.8c-4-3.6-12.6-1.5-17.2-1.1
	c-16.8,1.4-33.4,3.9-49.9,7.4c-1.9,0.4-1.1,3.3,0.8,2.9c10.8-2.3,21.8-4.2,32.8-5.6c5.4-0.7,10.8-1.2,16.3-1.7
	c2.6-0.2,5.1-0.4,7.7-0.5c1-0.1,2.1-0.2,3.1-0.1c3.2,0.1,3.5-0.5,1.6,3.3c-1.7,3.4-1.2,3-4.1,2.9c-1.2,0-2.5-0.1-3.7-0.2
	c-2.5-0.1-5.1-0.2-7.6-0.2c-5.4,0-10.8,0.3-16.2,0.8c-4.6,0.4-9.1,1.1-13.6,1.9c-2.8,0.5-5.6,1.1-8.4,1.7c-1.2,0.3-2.5,0.6-3.7,0.9
	c-0.6,0.2-1.2,0.3-1.8,0.5c-2.2,0.8-4-0.2-5.6-3C235.3,154,233.2,151.8,231.9,153.2L231.9,153.2z"/>
<path class="st0" d="M268.1,195.9c-14.5-0.6-30.1,3.4-39.6,15c-7.5,9.1-11.7,24.7-3.8,35c8.5,11,27.1,9.1,38.3,4.4
	c11.9-5,24.9-15.3,28.5-28.2c4.5-16.1-10-28.3-25-28.5c-0.8,0-1.5,0.7-1.4,1.6c0,0.8,0.7,1.4,1.4,1.4c8.6,0.1,17,3.8,21,11.8
	c4.2,8.4,0.6,17.3-5,24c-8.9,10.7-22.9,18.8-37.2,18.6c-8.5-0.1-18-3.1-20.6-12.1c-2.2-7.3-0.5-15.3,3.3-21.8
	c8.2-14,25-18.7,40.3-18.1C270.1,199,270.1,196,268.1,195.9L268.1,195.9z"/>
<path class="st0" d="M253.7,218.1c-2-0.7-4.3,0.3-5,2.3c-0.2,0.5-0.3,1.1-0.2,1.7c0.3,3.9,4.6,5,7.8,4.8c2.8-0.2,6-1.3,5.1-4.8
	c-0.4-1.2-1.3-2.3-2.4-2.8c-0.9-0.4-1.9-0.5-2.8-0.4c-0.4,0-3.8,1.2-2.3-0.2l-2.4-0.3c0.5,0.5,0.8,1.3,0.7,2c0,0.8,0.7,1.5,1.5,1.5
	c0.3,0,0.5-0.1,0.7-0.2c1-0.4,2.2,0.1,2.6,1.1c0.2,0.4,0.2,0.8,0.1,1.3c-0.2,0.8,0.3,1.6,1.1,1.8c0.6,0.1,1.3-0.1,1.6-0.7
	c1-1.8,2.2-5.4,0.7-7.3c-1-1.3-2.9-0.9-4.1-0.1c-0.7,0.5-1.4,1.1-2.1,1.8c-1.2,1.1-2,1.6-1.5-0.5c0.8-3.7,4.3-6.7,7.6-8.2l-2.2-1.7
	c-1.2,4.3-3.2,8.4-6.1,11.9l2.6,1.1c-0.1-2.8,1.5-5.4,4.1-6.5h-1.5l0.8,1.3c-0.3,1.9,2.6,2.7,2.9,0.8c0.4-2.5-1.2-5.7-4.1-4.5
	c-3.4,1.4-5.2,5.4-5.2,8.9c0,1.2,1.7,2.1,2.6,1.1c3.2-3.9,5.5-8.4,6.8-13.2c0.2-0.8-0.3-1.6-1.1-1.8c-0.4-0.1-0.8,0-1.1,0.1
	c-3,1.4-5.5,3.6-7.3,6.3c-1.2,2-2.8,5.1-1.5,7.4c0.8,1.5,2.8,2.1,4.3,1.2c0,0,0,0,0,0l0,0c0.9-0.5,1.8-1.2,2.5-2
	c0.4-0.3,0.8-0.9,1.3-1c0.4-0.3,0.4-0.1-0.1,0.5c0,1-0.3,2-0.9,2.9l2.7,1.1c0.7-2.7-0.9-5.4-3.6-6.1c-1.2-0.3-2.5-0.2-3.6,0.4
	l2.3,1.3c0-1.3-0.4-2.5-1.1-3.5c-0.4-0.7-1.4-0.9-2.1-0.5c-0.1,0.1-0.2,0.1-0.3,0.2c-1.5,1.6-1.8,4.3,0.1,5.8c1.4,1.1,2.1,0,3.7-0.2
	c5.3-0.7,2.2,1.7,0.3,1.8c-0.8,0.1-1.7,0-2.5-0.2c-2.1-0.7-2.2-1.6-0.4-2.7C254.8,221.7,255.5,218.8,253.7,218.1L253.7,218.1z"/>
<path class="st0" d="M251.3,223.6c1.2,4-3.9,5.3-6.3,6.7c-1.7,0.9-3.2,2.2-4.3,3.8c-2.5,3.4-3.5,7.7-4.3,11.7
	c-0.4,1.9,2.5,2.7,2.9,0.8c0.5-3,1.3-5.9,2.5-8.6c1.8-3.6,4.4-4.8,7.7-6.6s5.8-4.7,4.6-8.6C253.7,220.9,250.8,221.7,251.3,223.6
	L251.3,223.6z"/>
<path class="st0" d="M256.3,221.6c-1.5,0.2-2.6,1.5-2.5,3c0,1.2,0.8,2,1.3,2.9c1.3,1.9,2.3,4.1,2.9,6.3c0.5,2.1,1,6-0.2,8
	c-2.1,3.7-5.8,3-9,3c-3,0-5.3,1-5.2-3.2c0.1-2.4,1.7-4.7,3-6.6l-2.7-0.4c0.6,3.1,0.9,6.2,0.9,9.3c0,1.4,2.1,2.2,2.8,0.8
	c1.6-3.4,2.9-6.9,3.8-10.5l-3-0.4l0.5,7.6c0,0.8,0.7,1.5,1.5,1.5c0.5,0,1-0.3,1.2-0.7c0.4-0.4,0.6-0.8,0.8-1.4
	c0.1-0.5-0.8-3.6-1.2-2.5l2.9,0.4l0.2-7.2l-3,0.4c0.6,2,0.8,4.2,0.6,6.3c-0.2,1.7,2.6,2,3,0.4l1.9-9.7l-2.7,0.4
	c0.7,1.3,0.8,2.9,0.5,4.3c-0.2,1.9,2.8,1.9,3,0c0.3-2-0.1-4-0.9-5.8c-0.4-0.7-1.4-0.9-2.1-0.5c-0.3,0.2-0.6,0.5-0.7,0.9l-1.9,9.7
	l3,0.4c0.3-2.4,0.1-4.8-0.7-7.1c-0.2-0.8-1.1-1.3-1.9-1c-0.6,0.2-1.1,0.8-1.1,1.4l-0.2,7.2c0,0.8,0.7,1.5,1.5,1.5
	c0.7,0,1.2-0.4,1.4-1.1l0.2-0.5c0.1-0.5,0-1.1-0.4-1.5c-3.1-3.4-3.7,2-4.8,3.5l2.8,0.8l-0.5-7.6c-0.1-1.6-2.5-2.1-3-0.4
	c-0.8,3.4-2,6.7-3.5,9.8l2.8,0.8c0-3.4-0.4-6.7-1-10.1c-0.3-1.4-2.1-1.3-2.7-0.4c-2,2.9-5.5,9.2-2.8,12.6c2.3,3,9.7,1.8,12.8,1.6
	c4.9-0.3,6.7-3.4,7.3-8.1c0.3-2.2,0.1-4.5-0.4-6.7c-0.3-1.2-3-8.7-3.8-8.5C259.1,224.1,258.3,221.2,256.3,221.6L256.3,221.6z"/>
<path class="st0" d="M250.5,228.3l-8.2,10.8l2.6,1.5l6-8.7l-2.7-1.2l-3,11.4c-0.2,0.8,0.3,1.6,1.1,1.8c0.6,0.1,1.3-0.1,1.6-0.7
	c1.4-2.3,2.9-4.4,4.6-6.4l-2.5-1.5c-0.7,2.6-2,5-3.8,6.9l2.5,1.5c0.2-1.4,0.5-2.7,1.1-4c0.8-1.7-1.7-3.3-2.6-1.5
	c-0.8,1.6-1.8,3.1-2.9,4.5l2.7,0.4l0.6-2.9L245,240l0.4,2.5c0.2,0.8,1.1,1.3,1.9,1c0.2-0.1,0.5-0.2,0.6-0.4c2.5-2.6,4.6-5.7,6-9
	h-2.6c0.7,1.3,1.2,2.6,1.4,4c0.4,1.8,2.8,1.1,2.9-0.4c0.4-3.3,0.6-6.7,0.7-10.1h-3v6.3c0,1.6,2.7,2.1,3,0.4c0.2-1.5,0.7-3,1.5-4.3
	h-2.6c0.6,1,1,2.2,1,3.4c0,0.8,0.7,1.5,1.5,1.5s1.5-0.7,1.5-1.5l0.4-2h-2.9c0.3,1.8,1.4,11.7-2.5,10.6c-0.7-0.2-0.9-0.1-0.6,0.1
	l0.9-1.9l2.1-4.4l-2.8-0.8c0.2,2.1,0.4,5-0.9,6.8c-1,1.4-4.1,2-5.6,1.2c-1-0.7-1.9-1.7-2.6-2.7l-2,2c1.7,1.2,4.4,4.2,6.5,4.4
	c1.6,0.1,3-1.2,4.1-2.3c3.3-3.4,5.1-8.1,4.9-12.8c0-0.8-0.7-1.5-1.5-1.5c-0.8,0-1.5,0.7-1.5,1.5v3.4c0,0.8,0.7,1.5,1.5,1.5
	c0.8,0,1.5-0.7,1.5-1.5v-8.4c0-0.8-0.7-1.5-1.5-1.5c-0.8,0-1.5,0.7-1.5,1.5c0,2-0.2,4-0.5,6l2.9,0.4c-0.2-2.4-0.3-4.8-0.3-7.2
	c0-0.8-0.7-1.5-1.5-1.5c-0.7,0-1.2,0.4-1.4,1.1c-0.5,1.9-1,3.8-1.5,5.7l2.7-0.4l-0.2-0.8c-0.1-1.9-3.1-1.9-3,0
	c0,0.8,0.2,1.6,0.6,2.3c0.6,1.2,2.4,0.8,2.7-0.4c0.6-1.9,1.1-3.8,1.5-5.7l-2.9-0.4c0,2.4,0.1,4.8,0.3,7.2c0.1,1.5,2.6,2.2,2.9,0.4
	c0.4-2.3,0.6-4.5,0.6-6.8h-3v8.4h3v-3.4h-3c0.2,3.8-1.1,7.5-3.6,10.3c-0.4,0.4-0.8,0.9-1.3,1.2c-0.7,0.7-1.4,0.6-1.9-0.3
	c-1.4-0.6-2.9-2.1-4.1-3s-2.9,0.9-2.1,2c2.3,3.1,5.7,6.5,10,5c4.5-1.6,5.1-7.7,4.8-11.7c-0.1-1.3-2.1-2.2-2.8-0.8
	c-1,2.1-2,4.2-3,6.3c-0.5,0.8-0.8,1.7-0.9,2.6c0.3,2.2,3.1,1.9,4.7,1.8c6.5-0.5,5.5-9.7,4.7-14.4c-0.2-1.5-2.5-1.3-2.9,0
	c-0.3,0.9-0.5,1.9-0.5,2.8h3c-0.1-1.7-0.6-3.4-1.4-4.9c-0.4-0.7-1.4-0.9-2.1-0.5c-0.2,0.1-0.4,0.3-0.5,0.5c-0.9,1.5-1.5,3.2-1.8,5
	l3,0.4v-6.3c0-0.8-0.7-1.5-1.5-1.5s-1.5,0.7-1.5,1.5c0,3.4-0.2,6.8-0.7,10.1l3-0.4c-0.3-1.6-0.9-3.2-1.7-4.7
	c-0.4-0.7-1.4-0.9-2.1-0.5c-0.2,0.1-0.4,0.3-0.5,0.5c-1.3,3.1-3.2,6-5.5,8.4l2.5,0.7l-0.4-2.5c-0.2-1.3-2.1-1.4-2.7-0.4
	c-1,1.5-1.3,3.4-0.9,5.2c0.2,1.4,2,1.3,2.7,0.4c1.1-1.4,2-2.9,2.9-4.5l-2.6-1.5c-0.7,1.5-1.2,3.1-1.4,4.7c-0.2,1.3,1.4,2.7,2.5,1.5
	c2.1-2.4,3.7-5.2,4.5-8.3c0.4-1.4-1.5-2.6-2.5-1.5c-1.8,2.2-3.5,4.5-5,7l2.7,1.2l3-11.4c0.2-0.8-0.3-1.6-1.1-1.8
	c-0.6-0.1-1.3,0.1-1.6,0.7l-6,8.7c-1.1,1.6,1.5,3,2.6,1.5l8.2-10.8C254.4,228.3,251.8,226.8,250.5,228.3L250.5,228.3z"/>
<path class="st0" d="M378.1,264.4c12-7.3,21.5-18.3,32.1-27.5c11.5-9.9,23.6-19.2,36-27.9c24.1-17,49.5-32.2,74.8-47.4
	c0.7-0.4,0.9-1.4,0.5-2.1c-0.4-0.7-1.3-0.9-2-0.5c-25.3,15.2-50.7,30.4-74.8,47.4c-11.4,8-22.5,16.5-33.2,25.5
	c-11.6,9.8-21.9,22-35,29.9C374.9,262.8,376.4,265.4,378.1,264.4L378.1,264.4z"/>
<path class="st0" d="M559.8,115c-13,1.3-27,4.6-35,16c-6.9,9.8-6.8,26.8-0.3,36.9c7.4,11.4,22.4,11.8,34.1,8.1s23.8-10.2,23.7-24.1
	c-0.1-7.5-2.8-15.3-5.8-22.1c-2.6-5.9-7.2-11-14.1-10.4c-1.9,0.2-1.9,3.2,0,3c9.3-0.9,12.2,10.1,14.5,17.1c2,6.5,3.8,14.2,0.7,20.6
	s-10.7,9.7-17.2,12.1c-7,2.5-14.7,4.1-22,2c-14.5-4-18.5-22.4-14.3-35.4c4.8-15,21.8-19.4,35.7-20.8
	C561.7,117.8,561.8,114.8,559.8,115L559.8,115z"/>
<path class="st0" d="M579.8,231c-13,1.3-27,4.6-35,16c-6.9,9.8-6.8,26.8-0.3,36.9c7.4,11.4,22.4,11.8,34.1,8.1s23.8-10.2,23.7-24.1
	c-0.1-7.5-2.8-15.3-5.8-22.1c-2.6-5.9-7.2-11-14.1-10.4c-1.9,0.2-1.9,3.2,0,3c9.3-0.9,12.2,10.1,14.5,17.1c2,6.5,3.8,14.2,0.7,20.6
	s-10.7,9.7-17.2,12.1c-7,2.5-14.7,4.1-22,2c-14.5-4-18.5-22.4-14.3-35.4c4.8-15,21.8-19.4,35.7-20.8
	C581.7,233.8,581.8,230.8,579.8,231L579.8,231z"/>
<path class="st0" d="M540.2,144.2l9.5,10.8c0.6,0.6,1.6,0.6,2.1,0c0.2-0.2,0.3-0.4,0.4-0.6c2-5.3,1.6-10.7,2.1-16.2
	c0.5-5.7,2-11.3,4.2-16.6c4.6-10.7,12.4-19.6,22.4-25.6c1.7-1,0.1-3.6-1.5-2.6c-9.8,5.9-17.7,14.5-22.6,24.9c-2.4,5-4.1,10.4-5,15.9
	c-1,6.5-0.1,13.3-2.5,19.5l2.5-0.7l-9.4-10.8C541.1,140.7,538.9,142.8,540.2,144.2L540.2,144.2z"/>
<path class="st0" d="M382.9,276.1c51.6-1.6,103.2-1.9,154.8-1c0.8,0,1.5-0.7,1.4-1.6c0-0.8-0.7-1.4-1.4-1.4
	c-51.6-0.9-103.2-0.6-154.8,1C381,273.1,381,276.1,382.9,276.1z"/>
<path class="st0" d="M548.5,246.5c17.6,6.9,34.6,15.4,50.7,25.5c1.6,1,3.2-1.6,1.5-2.6c-16.3-10.1-33.5-18.8-51.3-25.8
	C547.5,242.9,546.8,245.8,548.5,246.5L548.5,246.5z"/>
<path class="st0" d="M580.5,232.9c-17.9,20.8-28.2,47.1-29.4,74.5c-0.1,1.9,2.9,1.9,3,0c1.1-26.6,11.2-52.1,28.5-72.4
	C583.9,233.6,581.8,231.4,580.5,232.9L580.5,232.9z"/>
<path class="st0" d="M180.6,265.2l111.8-1.5l12.8-0.2c2.3,0,4.6-0.1,6.9-0.1c3.2,0,5.4,2.7,5.4,6c-0.2,7-4.5,6.8-10.3,7l-13.9,0.6
	l-56.6,2.5c-10.1,0.5-20.3,1-30.4,1.4c-9.1,0.3-26.5-2.7-22.5-16c0.6-1.9-2.3-2.6-2.9-0.8c-2,6.5,1.5,13.2,7.2,16.6
	c8.1,4.9,18.8,3.2,27.7,2.8l69.4-3.1l16.9-0.8c4.3-0.2,10.3,0.7,14.3-1.3c4.7-2.4,5.5-11.7,2.5-15.6c-1.5-2-3.6-2.2-6-2.3
	c-6.2-0.2-12.5,0.2-18.8,0.2l-34.6,0.5l-79.1,1c-0.8,0-1.5,0.7-1.4,1.6C179.1,264.5,179.7,265.1,180.6,265.2L180.6,265.2z"/>
<polygon class="st2" points="508.9,343.1 476.5,323.5 486,360.2 491.7,346.9 501.2,359.6 504,357.5 494.5,344.7 "/>
<rect x="502.4" y="364.1" class="st2" width="55" height="19"/>
<polygon class="st5" points="316.8,188.1 349.3,168.5 339.8,205.2 334.1,191.9 324.6,204.6 321.7,202.5 331.3,189.7 "/>
<rect x="268.4" y="210.1" class="st5" width="55" height="19"/>
</svg>
