<svg xmlns="http://www.w3.org/2000/svg" xmlns:xlink="http://www.w3.org/1999/xlink" viewBox="0 0 318.22 363.08"><defs><style>.cls-1{mask:url(#mask);}.cls-2{mix-blend-mode:multiply;fill:url(#Áåçûìÿííûé_ãðàäèåíò_30);}.cls-3{fill:none;}.cls-4{isolation:isolate;}.cls-5,.cls-84,.cls-85{fill:#8686f2;}.cls-5,.cls-83{mix-blend-mode:lighten;}.cls-6{fill:url(#Áåçûìÿííûé_ãðàäèåíò_2);}.cls-7{fill:url(#Áåçûìÿííûé_ãðàäèåíò_3);}.cls-40,.cls-8{fill:#fff;}.cls-10,.cls-11,.cls-12,.cls-13,.cls-14,.cls-15,.cls-18,.cls-19,.cls-20,.cls-21,.cls-22,.cls-23,.cls-27,.cls-28,.cls-29,.cls-30,.cls-31,.cls-32,.cls-8{opacity:0.5;}.cls-9{fill:#0f054c;}.cls-10{fill:url(#Áåçûìÿííûé_ãðàäèåíò_254);}.cls-11{fill:url(#Áåçûìÿííûé_ãðàäèåíò_254-2);}.cls-12{fill:url(#Áåçûìÿííûé_ãðàäèåíò_254-3);}.cls-13{fill:url(#Áåçûìÿííûé_ãðàäèåíò_254-4);}.cls-14{fill:url(#Áåçûìÿííûé_ãðàäèåíò_254-5);}.cls-15{fill:url(#Áåçûìÿííûé_ãðàäèåíò_254-6);}.cls-16{fill:url(#Áåçûìÿííûé_ãðàäèåíò_2-2);}.cls-17{fill:url(#Áåçûìÿííûé_ãðàäèåíò_3-2);}.cls-18{fill:url(#Áåçûìÿííûé_ãðàäèåíò_254-7);}.cls-19{fill:url(#Áåçûìÿííûé_ãðàäèåíò_254-8);}.cls-20{fill:url(#Áåçûìÿííûé_ãðàäèåíò_254-9);}.cls-21{fill:url(#Áåçûìÿííûé_ãðàäèåíò_254-10);}.cls-22{fill:url(#Áåçûìÿííûé_ãðàäèåíò_254-11);}.cls-23{fill:url(#Áåçûìÿííûé_ãðàäèåíò_254-12);}.cls-24,.cls-70{fill:#42e8e0;}.cls-24{opacity:0.8;}.cls-25{fill:url(#Áåçûìÿííûé_ãðàäèåíò_2-3);}.cls-26{fill:url(#Áåçûìÿííûé_ãðàäèåíò_3-3);}.cls-27{fill:url(#Áåçûìÿííûé_ãðàäèåíò_254-13);}.cls-28{fill:url(#Áåçûìÿííûé_ãðàäèåíò_254-14);}.cls-29{fill:url(#Áåçûìÿííûé_ãðàäèåíò_254-15);}.cls-30{fill:url(#Áåçûìÿííûé_ãðàäèåíò_254-16);}.cls-31{fill:url(#Áåçûìÿííûé_ãðàäèåíò_254-17);}.cls-32{fill:url(#Áåçûìÿííûé_ãðàäèåíò_254-18);}.cls-33{fill:#24126a;}.cls-34{fill:url(#Áåçûìÿííûé_ãðàäèåíò_3-4);}.cls-35{fill:#393091;}.cls-36{fill:#cad0f9;}.cls-37{opacity:0.51;}.cls-38{fill:#453c9e;}.cls-39{fill:#bcbeff;}.cls-41{mask:url(#mask-2);}.cls-42{opacity:0.78;fill:url(#Áåçûìÿííûé_ãðàäèåíò_14);}.cls-43{fill:url(#Áåçûìÿííûé_ãðàäèåíò_24);}.cls-44{fill:url(#Áåçûìÿííûé_ãðàäèåíò_3-5);}.cls-45{fill:url(#Áåçûìÿííûé_ãðàäèåíò_3-6);}.cls-46{fill:#3f21d3;}.cls-47{fill:url(#Áåçûìÿííûé_ãðàäèåíò_24-2);}.cls-48{fill:url(#Áåçûìÿííûé_ãðàäèåíò_24-3);}.cls-49{fill:url(#Áåçûìÿííûé_ãðàäèåíò_24-4);}.cls-50{fill:url(#Áåçûìÿííûé_ãðàäèåíò_24-5);}.cls-51{fill:url(#Áåçûìÿííûé_ãðàäèåíò_24-6);}.cls-52{fill:url(#Áåçûìÿííûé_ãðàäèåíò_24-7);}.cls-53{fill:url(#Áåçûìÿííûé_ãðàäèåíò_24-8);}.cls-54{fill:url(#Áåçûìÿííûé_ãðàäèåíò_24-9);}.cls-55{fill:url(#Áåçûìÿííûé_ãðàäèåíò_24-10);}.cls-56{fill:url(#Áåçûìÿííûé_ãðàäèåíò_24-11);}.cls-57{fill:url(#Áåçûìÿííûé_ãðàäèåíò_24-12);}.cls-58{fill:url(#Áåçûìÿííûé_ãðàäèåíò_24-13);}.cls-59{fill:url(#Áåçûìÿííûé_ãðàäèåíò_24-14);}.cls-60{fill:url(#Áåçûìÿííûé_ãðàäèåíò_24-15);}.cls-61{fill:url(#Áåçûìÿííûé_ãðàäèåíò_3-7);}.cls-62{fill:#2842a2;}.cls-63{fill:#adb1f2;}.cls-64{fill:#9198db;}.cls-65{fill:url(#Áåçûìÿííûé_ãðàäèåíò_3-8);}.cls-66{opacity:0.11;}.cls-67{clip-path:url(#clip-path);}.cls-68{fill:url(#Áåçûìÿííûé_ãðàäèåíò_3-9);}.cls-69{fill:url(#Áåçûìÿííûé_ãðàäèåíò_3-10);}.cls-71{fill:url(#Áåçûìÿííûé_ãðàäèåíò_3-11);}.cls-72{fill:url(#Áåçûìÿííûé_ãðàäèåíò_24-16);}.cls-73{fill:url(#Áåçûìÿííûé_ãðàäèåíò_3-12);}.cls-74{fill:url(#Áåçûìÿííûé_ãðàäèåíò_24-17);}.cls-75{fill:url(#Áåçûìÿííûé_ãðàäèåíò_3-13);}.cls-76{fill:url(#Áåçûìÿííûé_ãðàäèåíò_24-18);}.cls-77{fill:url(#Áåçûìÿííûé_ãðàäèåíò_3-14);}.cls-78{fill:url(#Áåçûìÿííûé_ãðàäèåíò_24-19);}.cls-79{fill:url(#Áåçûìÿííûé_ãðàäèåíò_3-15);}.cls-80{fill:url(#Áåçûìÿííûé_ãðàäèåíò_24-20);}.cls-81{fill:url(#Áåçûìÿííûé_ãðàäèåíò_3-16);}.cls-82{fill:url(#Áåçûìÿííûé_ãðàäèåíò_24-21);}.cls-85{opacity:0.3;}.cls-86{filter:url(#luminosity-noclip-2);}.cls-87{filter:url(#luminosity-noclip);}</style><filter id="luminosity-noclip" x="367.4" y="-8417" width="94.45" height="32766" filterUnits="userSpaceOnUse" color-interpolation-filters="sRGB"><feFlood flood-color="#fff" result="bg"/><feBlend in="SourceGraphic" in2="bg"/></filter><mask id="mask" x="367.4" y="-8417" width="94.45" height="32766" maskUnits="userSpaceOnUse"><g class="cls-87"/></mask><linearGradient id="Áåçûìÿííûé_ãðàäèåíò_30" x1="382.09" y1="91.11" x2="476.54" y2="91.11" gradientUnits="userSpaceOnUse"><stop offset="0"/><stop offset="0.05" stop-color="#2f2f2f"/><stop offset="0.1" stop-color="#5a5a5a"/><stop offset="0.15" stop-color="#828282"/><stop offset="0.22" stop-color="#a4a4a4"/><stop offset="0.28" stop-color="silver"/><stop offset="0.36" stop-color="#d7d7d7"/><stop offset="0.44" stop-color="#e9e9e9"/><stop offset="0.54" stop-color="#f6f6f6"/><stop offset="0.68" stop-color="#fdfdfd"/><stop offset="1" stop-color="#fff"/></linearGradient><linearGradient id="Áåçûìÿííûé_ãðàäèåíò_2" x1="4.01" y1="253.29" x2="73.84" y2="253.29" gradientUnits="userSpaceOnUse"><stop offset="0.25" stop-color="#5761d7"/><stop offset="0.44" stop-color="#6c74df"/><stop offset="0.82" stop-color="#a2a6f5"/><stop offset="1" stop-color="#bcbeff"/></linearGradient><linearGradient id="Áåçûìÿííûé_ãðàäèåíò_3" x1="4.01" y1="234.2" x2="102.01" y2="234.2" gradientUnits="userSpaceOnUse"><stop offset="0" stop-color="#c0bff6"/><stop offset="0.29" stop-color="#c5c4f7"/><stop offset="0.64" stop-color="#d3d2f9"/><stop offset="1" stop-color="#e9e9fd"/></linearGradient><linearGradient id="Áåçûìÿííûé_ãðàäèåíò_254" x1="22.72" y1="234.2" x2="83.3" y2="234.2" gradientUnits="userSpaceOnUse"><stop offset="0" stop-color="#42e8e0"/><stop offset="0.15" stop-color="#43e3e0"/><stop offset="0.33" stop-color="#45d5df"/><stop offset="0.52" stop-color="#49bddd"/><stop offset="0.72" stop-color="#4e9cdb"/><stop offset="0.93" stop-color="#5472d8"/><stop offset="1" stop-color="#5761d7"/></linearGradient><linearGradient id="Áåçûìÿííûé_ãðàäèåíò_254-2" x1="53.01" y1="213.23" x2="83.3" y2="213.23" xlink:href="#Áåçûìÿííûé_ãðàäèåíò_254"/><linearGradient id="Áåçûìÿííûé_ãðàäèåíò_254-3" x1="22.72" y1="213.23" x2="53.01" y2="213.23" xlink:href="#Áåçûìÿííûé_ãðàäèåíò_254"/><linearGradient id="Áåçûìÿííûé_ãðàäèåíò_254-4" x1="22.72" y1="209.74" x2="83.3" y2="209.74" xlink:href="#Áåçûìÿííûé_ãðàäèåíò_254"/><linearGradient id="Áåçûìÿííûé_ãðàäèåíò_254-5" x1="53.01" y1="230.71" x2="83.3" y2="230.71" xlink:href="#Áåçûìÿííûé_ãðàäèåíò_254"/><linearGradient id="Áåçûìÿííûé_ãðàäèåíò_254-6" x1="22.72" y1="230.71" x2="53.01" y2="230.71" xlink:href="#Áåçûìÿííûé_ãðàäèåíò_254"/><linearGradient id="Áåçûìÿííûé_ãðàäèåíò_2-2" x1="70.71" y1="291.75" x2="140.54" y2="291.75" xlink:href="#Áåçûìÿííûé_ãðàäèåíò_2"/><linearGradient id="Áåçûìÿííûé_ãðàäèåíò_3-2" x1="70.71" y1="272.67" x2="168.7" y2="272.67" xlink:href="#Áåçûìÿííûé_ãðàäèåíò_3"/><linearGradient id="Áåçûìÿííûé_ãðàäèåíò_254-7" x1="89.42" y1="272.67" x2="150" y2="272.67" xlink:href="#Áåçûìÿííûé_ãðàäèåíò_254"/><linearGradient id="Áåçûìÿííûé_ãðàäèåíò_254-8" x1="119.71" y1="251.69" x2="150" y2="251.69" xlink:href="#Áåçûìÿííûé_ãðàäèåíò_254"/><linearGradient id="Áåçûìÿííûé_ãðàäèåíò_254-9" x1="89.42" y1="251.69" x2="119.71" y2="251.69" xlink:href="#Áåçûìÿííûé_ãðàäèåíò_254"/><linearGradient id="Áåçûìÿííûé_ãðàäèåíò_254-10" x1="89.42" y1="248.2" x2="150" y2="248.2" xlink:href="#Áåçûìÿííûé_ãðàäèåíò_254"/><linearGradient id="Áåçûìÿííûé_ãðàäèåíò_254-11" x1="119.71" y1="269.18" x2="150" y2="269.18" xlink:href="#Áåçûìÿííûé_ãðàäèåíò_254"/><linearGradient id="Áåçûìÿííûé_ãðàäèåíò_254-12" x1="89.42" y1="269.18" x2="119.71" y2="269.18" xlink:href="#Áåçûìÿííûé_ãðàäèåíò_254"/><linearGradient id="Áåçûìÿííûé_ãðàäèåíò_2-3" x1="137.51" y1="330.29" x2="207.34" y2="330.29" xlink:href="#Áåçûìÿííûé_ãðàäèåíò_2"/><linearGradient id="Áåçûìÿííûé_ãðàäèåíò_3-3" x1="137.51" y1="311.2" x2="235.51" y2="311.2" xlink:href="#Áåçûìÿííûé_ãðàäèåíò_3"/><linearGradient id="Áåçûìÿííûé_ãðàäèåíò_254-13" x1="156.22" y1="311.2" x2="216.8" y2="311.2" xlink:href="#Áåçûìÿííûé_ãðàäèåíò_254"/><linearGradient id="Áåçûìÿííûé_ãðàäèåíò_254-14" x1="186.51" y1="290.23" x2="216.8" y2="290.23" xlink:href="#Áåçûìÿííûé_ãðàäèåíò_254"/><linearGradient id="Áåçûìÿííûé_ãðàäèåíò_254-15" x1="156.22" y1="290.23" x2="186.51" y2="290.23" xlink:href="#Áåçûìÿííûé_ãðàäèåíò_254"/><linearGradient id="Áåçûìÿííûé_ãðàäèåíò_254-16" x1="156.22" y1="286.74" x2="216.8" y2="286.74" xlink:href="#Áåçûìÿííûé_ãðàäèåíò_254"/><linearGradient id="Áåçûìÿííûé_ãðàäèåíò_254-17" x1="186.51" y1="307.71" x2="216.8" y2="307.71" xlink:href="#Áåçûìÿííûé_ãðàäèåíò_254"/><linearGradient id="Áåçûìÿííûé_ãðàäèåíò_254-18" x1="156.22" y1="307.71" x2="186.51" y2="307.71" xlink:href="#Áåçûìÿííûé_ãðàäèåíò_254"/><linearGradient id="Áåçûìÿííûé_ãðàäèåíò_3-4" x1="492" y1="307.36" x2="492" y2="103.16" xlink:href="#Áåçûìÿííûé_ãðàäèåíò_3"/><filter id="luminosity-noclip-2" x="367.4" y="51.03" width="94.45" height="80.15" filterUnits="userSpaceOnUse" color-interpolation-filters="sRGB"><feFlood flood-color="#fff" result="bg"/><feBlend in="SourceGraphic" in2="bg"/></filter><mask id="mask-2" x="129.19" y="2.77" width="94.45" height="80.15" maskUnits="userSpaceOnUse"><g class="cls-86"><g transform="translate(-238.22 -48.26)"><g class="cls-1"><path class="cls-2" d="M426.88,51h-6.64L368.3,81c-1.08.63-1.2,1.57-.26,2.12l2.52,1.45,80.69,46.59,10.6-.12Z"/></g></g></g></mask><linearGradient id="Áåçûìÿííûé_ãðàäèåíò_14" x1="382.09" y1="91.11" x2="476.54" y2="91.11" gradientUnits="userSpaceOnUse"><stop offset="0" stop-color="#e9e9fd"/><stop offset="0.04" stop-color="#d3d5f7"/><stop offset="0.11" stop-color="#b2b6ef"/><stop offset="0.18" stop-color="#969be7"/><stop offset="0.27" stop-color="#7f86e1"/><stop offset="0.36" stop-color="#6d75dd"/><stop offset="0.48" stop-color="#606ad9"/><stop offset="0.64" stop-color="#5963d8"/><stop offset="1" stop-color="#5761d7"/></linearGradient><linearGradient id="Áåçûìÿííûé_ãðàäèåíò_24" x1="139.7" y1="44.43" x2="266.13" y2="44.43" gradientUnits="userSpaceOnUse"><stop offset="0" stop-color="#5761d7"/><stop offset="0.18" stop-color="#5c66d9"/><stop offset="0.39" stop-color="#6a73df"/><stop offset="0.61" stop-color="#8289e8"/><stop offset="0.85" stop-color="#a3a7f5"/><stop offset="1" stop-color="#bcbeff"/></linearGradient><linearGradient id="Áåçûìÿííûé_ãðàäèåíò_3-5" x1="223.64" y1="67.01" x2="272.6" y2="67.01" xlink:href="#Áåçûìÿííûé_ãðàäèåíò_3"/><linearGradient id="Áåçûìÿííûé_ãðàäèåíò_3-6" x1="139.7" y1="41.13" x2="272.6" y2="41.13" xlink:href="#Áåçûìÿííûé_ãðàäèåíò_3"/><linearGradient id="Áåçûìÿííûé_ãðàäèåíò_24-2" x1="168.84" y1="22.6" x2="184.47" y2="22.6" xlink:href="#Áåçûìÿííûé_ãðàäèåíò_24"/><linearGradient id="Áåçûìÿííûé_ãðàäèåíò_24-3" x1="172.9" y1="24.94" x2="188.53" y2="24.94" xlink:href="#Áåçûìÿííûé_ãðàäèåíò_24"/><linearGradient id="Áåçûìÿííûé_ãðàäèåíò_24-4" x1="176.95" y1="27.27" x2="192.59" y2="27.27" xlink:href="#Áåçûìÿííûé_ãðàäèåíò_24"/><linearGradient id="Áåçûìÿííûé_ãðàäèåíò_24-5" x1="181.01" y1="29.61" x2="196.65" y2="29.61" xlink:href="#Áåçûìÿííûé_ãðàäèåíò_24"/><linearGradient id="Áåçûìÿííûé_ãðàäèåíò_24-6" x1="192.88" y1="36.51" x2="208.52" y2="36.51" xlink:href="#Áåçûìÿííûé_ãðàäèåíò_24"/><linearGradient id="Áåçûìÿííûé_ãðàäèåíò_24-7" x1="196.94" y1="38.84" x2="212.58" y2="38.84" xlink:href="#Áåçûìÿííûé_ãðàäèåíò_24"/><linearGradient id="Áåçûìÿííûé_ãðàäèåíò_24-8" x1="201" y1="41.18" x2="216.64" y2="41.18" xlink:href="#Áåçûìÿííûé_ãðàäèåíò_24"/><linearGradient id="Áåçûìÿííûé_ãðàäèåíò_24-9" x1="205.06" y1="43.51" x2="220.69" y2="43.51" xlink:href="#Áåçûìÿííûé_ãðàäèåíò_24"/><linearGradient id="Áåçûìÿííûé_ãðàäèåíò_24-10" x1="216.93" y1="50.41" x2="232.56" y2="50.41" xlink:href="#Áåçûìÿííûé_ãðàäèåíò_24"/><linearGradient id="Áåçûìÿííûé_ãðàäèåíò_24-11" x1="220.99" y1="52.75" x2="236.62" y2="52.75" xlink:href="#Áåçûìÿííûé_ãðàäèåíò_24"/><linearGradient id="Áåçûìÿííûé_ãðàäèåíò_24-12" x1="225.05" y1="55.08" x2="240.68" y2="55.08" xlink:href="#Áåçûìÿííûé_ãðàäèåíò_24"/><linearGradient id="Áåçûìÿííûé_ãðàäèåíò_24-13" x1="229.1" y1="57.42" x2="244.74" y2="57.42" xlink:href="#Áåçûìÿííûé_ãðàäèåíò_24"/><linearGradient id="Áåçûìÿííûé_ãðàäèåíò_24-14" x1="273.69" y1="168.31" x2="240.58" y2="143.72" xlink:href="#Áåçûìÿííûé_ãðàäèåíò_24"/><linearGradient id="Áåçûìÿííûé_ãðàäèåíò_24-15" x1="471.39" y1="239.45" x2="537.47" y2="239.45" xlink:href="#Áåçûìÿííûé_ãðàäèåíò_24"/><linearGradient id="Áåçûìÿííûé_ãðàäèåíò_3-7" x1="493.59" y1="237.25" x2="559.71" y2="237.25" xlink:href="#Áåçûìÿííûé_ãðàäèåíò_3"/><linearGradient id="Áåçûìÿííûé_ãðàäèåíò_3-8" x1="504.79" y1="241" x2="521.71" y2="241" xlink:href="#Áåçûìÿííûé_ãðàäèåíò_3"/><clipPath id="clip-path" transform="translate(-238.22 -48.26)"><polygon class="cls-3" points="508.15 218.26 508.15 166.75 471.37 187.98 471.37 239.5 508.15 218.26"/></clipPath><linearGradient id="Áåçûìÿííûé_ãðàäèåíò_3-9" x1="468.6" y1="222.55" x2="534.4" y2="222.55" xlink:href="#Áåçûìÿííûé_ãðàäèåíò_3"/><linearGradient id="Áåçûìÿííûé_ãðàäèåíò_3-10" x1="464.27" y1="217.72" x2="481.11" y2="217.72" xlink:href="#Áåçûìÿííûé_ãðàäèåíò_3"/><linearGradient id="Áåçûìÿííûé_ãðàäèåíò_3-11" x1="452.11" y1="138.72" x2="456.11" y2="138.72" xlink:href="#Áåçûìÿííûé_ãðàäèåíò_3"/><linearGradient id="Áåçûìÿííûé_ãðàäèåíò_24-16" x1="451.62" y1="139.13" x2="454.93" y2="139.13" xlink:href="#Áåçûìÿííûé_ãðàäèåíò_24"/><linearGradient id="Áåçûìÿííûé_ãðàäèåíò_3-12" x1="370.24" y1="91.72" x2="374.24" y2="91.72" xlink:href="#Áåçûìÿííûé_ãðàäèåíò_3"/><linearGradient id="Áåçûìÿííûé_ãðàäèåíò_24-17" x1="369.75" y1="92.12" x2="373.06" y2="92.12" xlink:href="#Áåçûìÿííûé_ãðàäèåíò_24"/><linearGradient id="Áåçûìÿííûé_ãðàäèåíò_3-13" x1="452.11" y1="297.9" x2="456.11" y2="297.9" xlink:href="#Áåçûìÿííûé_ãðàäèåíò_3"/><linearGradient id="Áåçûìÿííûé_ãðàäèåíò_24-18" x1="451.62" y1="298.36" x2="454.93" y2="298.36" xlink:href="#Áåçûìÿííûé_ãðàäèåíò_24"/><linearGradient id="Áåçûìÿííûé_ãðàäèåíò_3-14" x1="452.11" y1="298.24" x2="456.12" y2="298.24" xlink:href="#Áåçûìÿííûé_ãðàäèåíò_3"/><linearGradient id="Áåçûìÿííûé_ãðàäèåíò_24-19" x1="451.62" y1="298.24" x2="454.93" y2="298.24" xlink:href="#Áåçûìÿííûé_ãðàäèåíò_24"/><linearGradient id="Áåçûìÿííûé_ãðàäèåíò_3-15" x1="370.24" y1="250.9" x2="374.24" y2="250.9" xlink:href="#Áåçûìÿííûé_ãðàäèåíò_3"/><linearGradient id="Áåçûìÿííûé_ãðàäèåíò_24-20" x1="369.75" y1="251.36" x2="373.06" y2="251.36" xlink:href="#Áåçûìÿííûé_ãðàäèåíò_24"/><linearGradient id="Áåçûìÿííûé_ãðàäèåíò_3-16" x1="370.24" y1="251.24" x2="374.24" y2="251.24" xlink:href="#Áåçûìÿííûé_ãðàäèåíò_3"/><linearGradient id="Áåçûìÿííûé_ãðàäèåíò_24-21" x1="369.75" y1="251.24" x2="373.06" y2="251.24" xlink:href="#Áåçûìÿííûé_ãðàäèåíò_24"/></defs><g class="cls-4"><g id="Ñëîé_1" data-name="Ñëîé 1"><path class="cls-5" d="M555.27,143a1.3,1.3,0,0,0,.58,1c.32.18.58,0,.58-.34a1.3,1.3,0,0,0-.58-1C555.53,142.47,555.27,142.62,555.27,143Z" transform="translate(-238.22 -48.26)"/><path class="cls-5" d="M533.45,130.39a1.3,1.3,0,0,0,.58,1c.32.18.58,0,.58-.34a1.3,1.3,0,0,0-.58-1C533.71,129.87,533.45,130,533.45,130.39Z" transform="translate(-238.22 -48.26)"/><path class="cls-5" d="M555.27,168.19a1.3,1.3,0,0,0,.58,1c.32.18.58,0,.58-.34a1.3,1.3,0,0,0-.58-1C555.53,167.67,555.27,167.82,555.27,168.19Z" transform="translate(-238.22 -48.26)"/><path class="cls-5" d="M533.45,155.59a1.3,1.3,0,0,0,.58,1c.32.18.58,0,.58-.34a1.3,1.3,0,0,0-.58-1C533.71,155.07,533.45,155.22,533.45,155.59Z" transform="translate(-238.22 -48.26)"/><path class="cls-5" d="M511.62,117.79a1.28,1.28,0,0,0,.59,1c.32.18.58,0,.58-.34a1.3,1.3,0,0,0-.58-1C511.88,117.27,511.62,117.42,511.62,117.79Z" transform="translate(-238.22 -48.26)"/><path class="cls-5" d="M511.62,143a1.28,1.28,0,0,0,.59,1c.32.18.58,0,.58-.34a1.3,1.3,0,0,0-.58-1C511.88,142.47,511.62,142.62,511.62,143Z" transform="translate(-238.22 -48.26)"/><path class="cls-5" d="M489.8,105.19a1.3,1.3,0,0,0,.58,1c.32.18.58,0,.58-.34a1.3,1.3,0,0,0-.58-1C490.06,104.67,489.8,104.82,489.8,105.19Z" transform="translate(-238.22 -48.26)"/><path class="cls-5" d="M489.8,130.39a1.3,1.3,0,0,0,.58,1c.32.18.58,0,.58-.34a1.3,1.3,0,0,0-.58-1C490.06,129.87,489.8,130,489.8,130.39Z" transform="translate(-238.22 -48.26)"/><path class="cls-5" d="M468,92.59a1.3,1.3,0,0,0,.58,1c.32.18.58,0,.58-.34a1.3,1.3,0,0,0-.58-1C468.24,92.07,468,92.22,468,92.59Z" transform="translate(-238.22 -48.26)"/><path class="cls-5" d="M468,117.79a1.3,1.3,0,0,0,.58,1c.32.18.58,0,.58-.34a1.3,1.3,0,0,0-.58-1C468.24,117.27,468,117.42,468,117.79Z" transform="translate(-238.22 -48.26)"/><path class="cls-5" d="M446.15,80a1.3,1.3,0,0,0,.58,1c.32.18.58,0,.58-.34a1.3,1.3,0,0,0-.58-1C446.41,79.47,446.15,79.62,446.15,80Z" transform="translate(-238.22 -48.26)"/><path class="cls-5" d="M446.15,105.19a1.3,1.3,0,0,0,.58,1c.32.18.58,0,.58-.34a1.3,1.3,0,0,0-.58-1C446.41,104.67,446.15,104.82,446.15,105.19Z" transform="translate(-238.22 -48.26)"/><path class="cls-5" d="M424.33,67.39a1.3,1.3,0,0,0,.58,1c.32.18.58,0,.58-.34a1.3,1.3,0,0,0-.58-1C424.59,66.87,424.33,67,424.33,67.39Z" transform="translate(-238.22 -48.26)"/><path class="cls-5" d="M424.33,92.59a1.3,1.3,0,0,0,.58,1c.32.18.58,0,.58-.34a1.3,1.3,0,0,0-.58-1C424.59,92.07,424.33,92.22,424.33,92.59Z" transform="translate(-238.22 -48.26)"/><path class="cls-5" d="M555.27,193.39a1.3,1.3,0,0,0,.58,1c.32.18.58,0,.58-.34a1.3,1.3,0,0,0-.58-1C555.53,192.87,555.27,193,555.27,193.39Z" transform="translate(-238.22 -48.26)"/><path class="cls-5" d="M533.45,180.79a1.3,1.3,0,0,0,.58,1c.32.18.58,0,.58-.34a1.3,1.3,0,0,0-.58-1C533.71,180.27,533.45,180.42,533.45,180.79Z" transform="translate(-238.22 -48.26)"/><path class="cls-5" d="M511.62,168.19a1.28,1.28,0,0,0,.59,1c.32.18.58,0,.58-.34a1.3,1.3,0,0,0-.58-1C511.88,167.67,511.62,167.82,511.62,168.19Z" transform="translate(-238.22 -48.26)"/><path class="cls-5" d="M489.8,155.59a1.3,1.3,0,0,0,.58,1c.32.18.58,0,.58-.34a1.3,1.3,0,0,0-.58-1C490.06,155.07,489.8,155.22,489.8,155.59Z" transform="translate(-238.22 -48.26)"/><path class="cls-5" d="M468,143a1.3,1.3,0,0,0,.58,1c.32.18.58,0,.58-.34a1.3,1.3,0,0,0-.58-1C468.24,142.47,468,142.62,468,143Z" transform="translate(-238.22 -48.26)"/><path class="cls-5" d="M446.15,130.39a1.3,1.3,0,0,0,.58,1c.32.18.58,0,.58-.34a1.3,1.3,0,0,0-.58-1C446.41,129.87,446.15,130,446.15,130.39Z" transform="translate(-238.22 -48.26)"/><path class="cls-5" d="M424.33,117.79a1.3,1.3,0,0,0,.58,1c.32.18.58,0,.58-.34a1.3,1.3,0,0,0-.58-1C424.59,117.27,424.33,117.42,424.33,117.79Z" transform="translate(-238.22 -48.26)"/><path class="cls-5" d="M555.27,218.59a1.3,1.3,0,0,0,.58,1c.32.18.58,0,.58-.34a1.3,1.3,0,0,0-.58-1C555.53,218.07,555.27,218.22,555.27,218.59Z" transform="translate(-238.22 -48.26)"/><path class="cls-5" d="M533.45,206a1.3,1.3,0,0,0,.58,1c.32.18.58,0,.58-.34a1.3,1.3,0,0,0-.58-1C533.71,205.47,533.45,205.62,533.45,206Z" transform="translate(-238.22 -48.26)"/><path class="cls-5" d="M511.62,193.39a1.28,1.28,0,0,0,.59,1c.32.18.58,0,.58-.34a1.3,1.3,0,0,0-.58-1C511.88,192.87,511.62,193,511.62,193.39Z" transform="translate(-238.22 -48.26)"/><path class="cls-5" d="M489.8,180.79a1.3,1.3,0,0,0,.58,1c.32.18.58,0,.58-.34a1.3,1.3,0,0,0-.58-1C490.06,180.27,489.8,180.42,489.8,180.79Z" transform="translate(-238.22 -48.26)"/><path class="cls-5" d="M468,168.19a1.3,1.3,0,0,0,.58,1c.32.18.58,0,.58-.34a1.3,1.3,0,0,0-.58-1C468.24,167.67,468,167.82,468,168.19Z" transform="translate(-238.22 -48.26)"/><path class="cls-5" d="M446.15,155.59a1.27,1.27,0,0,0,.58,1c.32.19.58,0,.58-.33a1.3,1.3,0,0,0-.58-1C446.41,155.07,446.15,155.22,446.15,155.59Z" transform="translate(-238.22 -48.26)"/><ellipse class="cls-5" cx="424.91" cy="143.32" rx="0.47" ry="0.82" transform="translate(-252.95 183.41) rotate(-30)"/><path class="cls-5" d="M555.27,243.79a1.27,1.27,0,0,0,.58,1c.32.19.58,0,.58-.33a1.3,1.3,0,0,0-.58-1C555.53,243.27,555.27,243.42,555.27,243.79Z" transform="translate(-238.22 -48.26)"/><path class="cls-5" d="M533.45,231.19a1.27,1.27,0,0,0,.58,1c.32.19.58,0,.58-.33a1.3,1.3,0,0,0-.58-1C533.71,230.67,533.45,230.82,533.45,231.19Z" transform="translate(-238.22 -48.26)"/><path class="cls-5" d="M511.62,218.59a1.25,1.25,0,0,0,.59,1c.32.19.58,0,.58-.33a1.3,1.3,0,0,0-.58-1C511.88,218.07,511.62,218.22,511.62,218.59Z" transform="translate(-238.22 -48.26)"/><path class="cls-5" d="M489.8,206a1.27,1.27,0,0,0,.58,1c.32.19.58,0,.58-.33a1.3,1.3,0,0,0-.58-1C490.06,205.47,489.8,205.62,489.8,206Z" transform="translate(-238.22 -48.26)"/><path class="cls-5" d="M468,193.39a1.27,1.27,0,0,0,.58,1c.32.19.58,0,.58-.33a1.3,1.3,0,0,0-.58-1C468.24,192.87,468,193,468,193.39Z" transform="translate(-238.22 -48.26)"/><path class="cls-5" d="M446.15,180.79a1.27,1.27,0,0,0,.58,1c.32.19.58,0,.58-.33a1.3,1.3,0,0,0-.58-1C446.41,180.27,446.15,180.42,446.15,180.79Z" transform="translate(-238.22 -48.26)"/><ellipse class="cls-5" cx="424.91" cy="168.52" rx="0.47" ry="0.82" transform="translate(-265.55 186.78) rotate(-30)"/><path class="cls-5" d="M555.27,269a1.27,1.27,0,0,0,.58,1c.32.19.58,0,.58-.33a1.3,1.3,0,0,0-.58-1C555.53,268.47,555.27,268.62,555.27,269Z" transform="translate(-238.22 -48.26)"/><path class="cls-5" d="M533.45,256.39a1.27,1.27,0,0,0,.58,1c.32.19.58,0,.58-.33a1.3,1.3,0,0,0-.58-1C533.71,255.87,533.45,256,533.45,256.39Z" transform="translate(-238.22 -48.26)"/><path class="cls-5" d="M511.62,243.79a1.25,1.25,0,0,0,.59,1c.32.19.58,0,.58-.33a1.3,1.3,0,0,0-.58-1C511.88,243.27,511.62,243.42,511.62,243.79Z" transform="translate(-238.22 -48.26)"/><path class="cls-5" d="M489.8,231.19a1.27,1.27,0,0,0,.58,1c.32.19.58,0,.58-.33a1.3,1.3,0,0,0-.58-1C490.06,230.67,489.8,230.82,489.8,231.19Z" transform="translate(-238.22 -48.26)"/><ellipse class="cls-5" cx="468.56" cy="218.92" rx="0.47" ry="0.82" transform="translate(-284.9 215.36) rotate(-30)"/><path class="cls-5" d="M446.15,206a1.27,1.27,0,0,0,.58,1c.32.19.58,0,.58-.33a1.3,1.3,0,0,0-.58-1C446.41,205.47,446.15,205.62,446.15,206Z" transform="translate(-238.22 -48.26)"/><path class="cls-5" d="M424.33,193.39a1.27,1.27,0,0,0,.58,1c.32.19.58,0,.58-.33a1.3,1.3,0,0,0-.58-1C424.59,192.87,424.33,193,424.33,193.39Z" transform="translate(-238.22 -48.26)"/><path class="cls-5" d="M291.23,334.34l-53-30.6,53-30.61,53,30.61Zm-51.51-30.6,51.51,29.73,51.51-29.73L291.22,274Z" transform="translate(-238.22 -48.26)"/><polygon class="cls-6" points="102.01 244.09 102.01 234.2 53.01 261.24 4.01 234.2 4.01 244.09 53.01 272.38 102.01 244.09"/><polygon class="cls-7" points="53.01 262.49 4.01 234.2 53.01 205.91 102.01 234.2 53.01 262.49"/><polygon class="cls-8" points="53.01 261.68 4.72 233.79 4.01 234.2 53.01 262.49 102.01 234.2 101.3 233.8 53.01 261.68"/><polygon class="cls-9" points="53.01 251.69 22.72 234.2 53.01 216.72 83.3 234.2 53.01 251.69"/><polygon class="cls-10" points="53.01 251.69 22.72 234.2 53.01 216.72 83.3 234.2 53.01 251.69"/><polygon class="cls-11" points="53.01 192.25 83.3 209.74 83.3 234.2 53.01 216.71 53.01 192.25"/><polygon class="cls-12" points="53.01 216.71 22.72 234.2 22.72 209.74 53.01 192.25 53.01 216.71"/><polygon class="cls-13" points="53.01 227.22 22.72 209.74 53.01 192.25 83.3 209.74 53.01 227.22"/><polygon class="cls-14" points="53.01 227.22 53.01 251.69 83.3 234.2 83.3 209.74 53.01 227.22"/><polygon class="cls-15" points="22.72 209.74 22.72 234.2 53.01 251.69 53.01 227.22 22.72 209.74"/><rect class="cls-5" x="354.34" y="312.44" width="59.58" height="0.7" transform="translate(-343.15 185.72) rotate(-30)"/><path class="cls-5" d="M357.92,372.81l-53-30.61,53-30.61,53,30.61ZM306.41,342.2l51.51,29.74,51.51-29.74-51.51-29.74Z" transform="translate(-238.22 -48.26)"/><polygon class="cls-16" points="168.7 282.56 168.7 272.67 119.71 299.7 70.71 272.67 70.71 282.55 119.71 310.84 168.7 282.56"/><polygon class="cls-17" points="119.71 300.95 70.71 272.67 119.71 244.38 168.7 272.67 119.71 300.95"/><polygon class="cls-8" points="119.71 300.14 71.42 272.26 70.71 272.67 119.71 300.95 168.7 272.67 168 272.26 119.71 300.14"/><polygon class="cls-9" points="119.71 290.15 89.42 272.67 119.71 255.18 150 272.67 119.71 290.15"/><polygon class="cls-18" points="119.71 290.15 89.42 272.67 119.71 255.18 150 272.67 119.71 290.15"/><polygon class="cls-19" points="119.71 230.71 150 248.2 150 272.67 119.71 255.18 119.71 230.71"/><polygon class="cls-20" points="119.71 255.18 89.42 272.67 89.42 248.2 119.71 230.71 119.71 255.18"/><polygon class="cls-21" points="119.71 265.69 89.42 248.2 119.71 230.71 150 248.2 119.71 265.69"/><polygon class="cls-22" points="119.71 265.69 119.71 290.15 150 272.67 150 248.2 119.71 265.69"/><polygon class="cls-23" points="89.42 248.2 89.42 272.67 119.71 290.15 119.71 265.69 89.42 248.2"/><polygon class="cls-24" points="119.71 264.86 90.14 247.78 89.42 248.2 119.71 265.69 150 248.2 149.28 247.78 119.71 264.86"/><path class="cls-5" d="M424.73,411.34l-53-30.6,53-30.61,53,30.61Zm-51.51-30.6,51.51,29.73,51.51-29.73L424.72,351Z" transform="translate(-238.22 -48.26)"/><polygon class="cls-25" points="235.51 321.09 235.51 311.2 186.51 338.24 137.51 311.2 137.51 321.09 186.51 349.38 235.51 321.09"/><polygon class="cls-26" points="186.51 339.49 137.51 311.2 186.51 282.91 235.51 311.2 186.51 339.49"/><polygon class="cls-8" points="186.51 338.68 138.22 310.8 137.51 311.2 186.51 339.49 235.51 311.2 234.8 310.8 186.51 338.68"/><polygon class="cls-9" points="186.51 328.69 156.22 311.2 186.51 293.71 216.8 311.2 186.51 328.69"/><polygon class="cls-27" points="186.51 328.69 156.22 311.2 186.51 293.71 216.8 311.2 186.51 328.69"/><polygon class="cls-28" points="186.51 269.25 216.8 286.74 216.8 311.2 186.51 293.71 186.51 269.25"/><polygon class="cls-29" points="186.51 293.71 156.22 311.2 156.22 286.74 186.51 269.25 186.51 293.71"/><polygon class="cls-30" points="186.51 304.23 156.22 286.74 186.51 269.25 216.8 286.74 186.51 304.23"/><polygon class="cls-31" points="186.51 304.23 186.51 328.69 216.8 311.2 216.8 286.74 186.51 304.23"/><polygon class="cls-32" points="156.22 286.74 156.22 311.2 186.51 328.69 186.51 304.23 156.22 286.74"/><path class="cls-5" d="M465,329.3a4.76,4.76,0,0,1-2.34-.56L357,267.76a2.26,2.26,0,0,1-1.24-2,2.73,2.73,0,0,1,1.54-2.27l63.5-36.66a5.71,5.71,0,0,1,5.22-.17l105.63,61a2.23,2.23,0,0,1,1.24,1.95,2.72,2.72,0,0,1-1.54,2.27l-63.5,36.66A5.87,5.87,0,0,1,465,329.3ZM423.72,226.9a5.15,5.15,0,0,0-2.5.62l-63.5,36.66a2,2,0,0,0-1.17,1.62,1.53,1.53,0,0,0,.87,1.31l105.63,61a5.09,5.09,0,0,0,4.46-.17L531,291.26a2,2,0,0,0,1.17-1.62,1.52,1.52,0,0,0-.87-1.3l-105.63-61A4,4,0,0,0,423.72,226.9Z" transform="translate(-238.22 -48.26)"/><path class="cls-33" d="M461.52,127.5h10.22l-2.46-5.56L367.4,82.19V252.55h0a1.11,1.11,0,0,0,.62.82L460.93,307a2.42,2.42,0,0,0,.59.23Z" transform="translate(-238.22 -48.26)"/><path class="cls-34" d="M521.33,103.16,462.7,136.61V239l0,0v68.37h0a4.25,4.25,0,0,0,1.89-.51l55.84-32.24a1.51,1.51,0,0,0,.89-1.16h0Z" transform="translate(-238.22 -48.26)"/><path class="cls-35" d="M458.5,85.42V305.6l2.43,1.4a3.31,3.31,0,0,0,1.74.36c.67,0,.71-.4,1.26-.72l.5-.21-.54-26.12V239.38l1.22-154Z" transform="translate(-238.22 -48.26)"/><path class="cls-36" d="M465.11,280.67V135.23l-2.41,1.38V239l0,0v68.37h0a3,3,0,0,0,.42,0h.08a3.84,3.84,0,0,0,.9-.23l.06,0a2.86,2.86,0,0,0,.43-.21l.52-.3Z" transform="translate(-238.22 -48.26)"/><g class="cls-37"><polygon class="cls-38" points="133.78 43.28 215.65 90.55 215.65 249.77 133.78 202.5 133.78 43.28"/></g><g class="cls-37"><polygon class="cls-38" points="129.19 179.52 220.28 118.54 220.28 87.1 129.19 33.92 129.19 179.52"/></g><path class="cls-39" d="M460.93,136.77,368,83.14c-.94-.55-.82-1.49.26-2.12l55.84-32.24a4.09,4.09,0,0,1,3.66-.15l92.89,53.63c.94.54.83,1.49-.26,2.12l-55.84,32.24A4.09,4.09,0,0,1,460.93,136.77Z" transform="translate(-238.22 -48.26)"/><path class="cls-40" d="M520.43,103.61l-55.84,32.23a4.06,4.06,0,0,1-3.66.16L368,82.37a1.25,1.25,0,0,1-.54-.56,1,1,0,0,0,.54,1.33l92.89,53.63a4.09,4.09,0,0,0,3.66-.15l55.84-32.24c.77-.45,1.05-1.06.8-1.57A1.91,1.91,0,0,1,520.43,103.61Z" transform="translate(-238.22 -48.26)"/><g class="cls-41"><path class="cls-42" d="M426.88,51h-6.64L368.3,81c-1.08.63-1.2,1.57-.26,2.12l2.52,1.45,80.69,46.59,10.6-.12Z" transform="translate(-238.22 -48.26)"/></g><polygon class="cls-43" points="188.66 6.07 144.03 31.84 139.7 31.04 139.7 34.34 223.64 82.8 266.13 53.91 188.66 6.07"/><polygon class="cls-44" points="272.6 51.23 272.6 54.53 223.64 82.8 223.64 79.49 272.6 51.23"/><polygon class="cls-45" points="223.64 79.49 139.7 31.04 188.66 2.77 272.6 51.23 223.64 79.49"/><polygon class="cls-40" points="223.64 78.78 140.32 30.68 139.7 31.04 223.64 79.49 272.6 51.23 271.98 50.87 223.64 78.78"/><polygon class="cls-46" points="171.03 27.5 169.69 26.73 169.81 26.1 182.21 18.88 183.93 19.7 183.61 20.24 171.03 27.5"/><polygon class="cls-47" points="182.28 19.47 183.61 20.24 184.47 19.74 182.28 18.47 168.84 26.23 169.7 26.73 182.28 19.47"/><polygon class="cls-46" points="175.09 29.84 173.75 29.07 173.87 28.44 186.27 21.22 187.99 22.04 187.67 22.58 175.09 29.84"/><polygon class="cls-48" points="186.33 21.8 187.67 22.58 188.53 22.08 186.33 20.81 172.9 28.57 173.76 29.07 186.33 21.8"/><polygon class="cls-46" points="179.15 32.17 177.81 31.4 177.92 30.77 190.33 23.56 192.05 24.38 191.73 24.91 179.15 32.17"/><polygon class="cls-49" points="190.39 24.14 191.73 24.91 192.59 24.41 190.39 23.15 176.95 30.91 177.81 31.4 190.39 24.14"/><polygon class="cls-46" points="183.21 34.51 181.87 33.74 181.98 33.11 194.39 25.89 196.11 26.71 195.79 27.25 183.21 34.51"/><polygon class="cls-50" points="194.45 26.48 195.79 27.25 196.65 26.75 194.45 25.48 181.01 33.24 181.87 33.74 194.45 26.48"/><polygon class="cls-46" points="195.08 41.41 193.74 40.63 193.85 40.01 206.26 32.79 207.98 33.61 207.66 34.14 195.08 41.41"/><polygon class="cls-51" points="206.32 33.37 207.66 34.14 208.52 33.65 206.32 32.38 192.88 40.14 193.74 40.63 206.32 33.37"/><polygon class="cls-46" points="199.14 43.74 197.8 42.97 197.91 42.34 210.31 35.13 212.04 35.95 211.72 36.48 199.14 43.74"/><polygon class="cls-52" points="210.38 35.71 211.72 36.48 212.58 35.98 210.38 34.71 196.94 42.47 197.8 42.97 210.38 35.71"/><polygon class="cls-46" points="203.2 46.08 201.86 45.3 201.97 44.68 214.37 37.46 216.09 38.28 215.77 38.82 203.2 46.08"/><polygon class="cls-53" points="214.44 38.05 215.77 38.82 216.64 38.32 214.44 37.05 201 44.81 201.86 45.31 214.44 38.05"/><polygon class="cls-46" points="207.25 48.41 205.92 47.64 206.03 47.02 218.43 39.8 220.15 40.62 219.83 41.15 207.25 48.41"/><polygon class="cls-54" points="218.5 40.38 219.83 41.15 220.69 40.66 218.5 39.39 205.06 47.15 205.92 47.64 218.5 40.38"/><polygon class="cls-46" points="219.13 55.31 217.79 54.54 217.9 53.91 230.3 46.69 232.02 47.51 231.7 48.05 219.13 55.31"/><polygon class="cls-55" points="230.37 47.28 231.7 48.05 232.56 47.55 230.37 46.28 216.93 54.04 217.79 54.54 230.37 47.28"/><polygon class="cls-46" points="223.18 57.65 221.84 56.87 221.96 56.25 234.36 49.03 236.08 49.85 235.76 50.38 223.18 57.65"/><polygon class="cls-56" points="234.43 49.61 235.76 50.38 236.62 49.89 234.43 48.62 220.99 56.38 221.85 56.88 234.43 49.61"/><polygon class="cls-46" points="227.24 59.98 225.9 59.21 226.01 58.58 238.42 51.37 240.14 52.19 239.82 52.72 227.24 59.98"/><polygon class="cls-57" points="238.49 51.95 239.82 52.72 240.68 52.22 238.49 50.95 225.04 58.71 225.91 59.21 238.49 51.95"/><polygon class="cls-46" points="231.3 62.32 229.96 61.55 230.07 60.92 242.48 53.7 244.2 54.52 243.88 55.06 231.3 62.32"/><polygon class="cls-58" points="242.54 54.29 243.88 55.06 244.74 54.56 242.54 53.29 229.1 61.05 229.97 61.55 242.54 54.29"/><polygon class="cls-39" points="274.41 169.8 233.16 193.62 233.16 137.25 274.41 113.43 274.41 169.8"/><polygon class="cls-59" points="272.11 114.76 272.11 168.74 233.16 191.23 233.16 193.62 274.41 169.8 274.41 113.43 272.11 114.76"/><path class="cls-60" d="M537.47,232.62l-2.21,1.15L513.09,221a1.63,1.63,0,0,0-1.44.06L473.42,243.1c-.36-.2-2-1-2-1l.81,2.11h0a.43.43,0,0,0,.23.25l23.34,13.48a1.59,1.59,0,0,0,1.45-.06l39.11-22.58a.68.68,0,0,0,.33-.35h0Z" transform="translate(-238.22 -48.26)"/><path class="cls-61" d="M537.13,233,497,256.13a1.67,1.67,0,0,1-1.49.06l-23.92-13.81c-.38-.22-.33-.61.11-.86l40.09-23.15a1.65,1.65,0,0,1,1.48-.06l23.92,13.81C537.61,232.34,537.57,232.73,537.13,233Z" transform="translate(-238.22 -48.26)"/><path class="cls-62" d="M484.94,251.12v-.44s0-.06.06,0l1.55.89a.15.15,0,0,1,.06.11v.44s0,.06-.06,0l-1.55-.89A.15.15,0,0,1,484.94,251.12Z" transform="translate(-238.22 -48.26)"/><path class="cls-62" d="M487.26,252.46V252s0-.06.06,0l1.55.89a.15.15,0,0,1,.06.11v.44s0,.06-.06,0l-1.55-.89A.15.15,0,0,1,487.26,252.46Z" transform="translate(-238.22 -48.26)"/><path class="cls-63" d="M477.87,241.08l33.31-19.23a.71.71,0,0,1,.72,0l11.86,6.86a.25.25,0,0,1,0,.44l-33.3,19.23a.7.7,0,0,1-.71,0l-11.88-6.85A.26.26,0,0,1,477.87,241.08Z" transform="translate(-238.22 -48.26)"/><path class="cls-64" d="M477.87,241.53l.12.06,33.19-19.16a.71.71,0,0,1,.72,0l11.74,6.79.12-.07a.25.25,0,0,0,0-.44l-11.86-6.86a.71.71,0,0,0-.72,0l-33.31,19.23A.26.26,0,0,0,477.87,241.53Z" transform="translate(-238.22 -48.26)"/><polygon class="cls-33" points="274.58 175.32 245.64 192.03 244.35 191.29 273.29 174.58 274.58 175.32"/><polygon class="cls-33" points="277.74 177.14 250.59 192.81 249.31 192.07 276.45 176.4 277.74 177.14"/><polygon class="cls-33" points="279.79 178.33 247.83 196.78 246.54 196.04 278.5 177.59 279.79 178.33"/><polygon class="cls-33" points="281.84 179.51 249.88 197.97 248.6 197.22 280.56 178.77 281.84 179.51"/><polygon class="cls-33" points="283.9 180.7 251.94 199.15 250.65 198.41 282.61 179.96 283.9 180.7"/><polygon class="cls-33" points="243.89 193.04 242.61 193.78 241.32 193.04 242.61 192.3 243.89 193.04"/><polygon class="cls-33" points="248.43 194.06 245.76 195.6 244.47 194.86 247.15 193.32 248.43 194.06"/><path class="cls-65" d="M512.47,245.74l9-5.19a.39.39,0,0,0,0-.73l-6.14-3.55a1.44,1.44,0,0,0-1.28,0l-9,5.19a.39.39,0,0,0,0,.73l6.14,3.55A1.44,1.44,0,0,0,512.47,245.74Z" transform="translate(-238.22 -48.26)"/><path class="cls-64" d="M505.05,241.76l9-5.19a1.44,1.44,0,0,1,1.28,0l6.14,3.55a.5.5,0,0,1,.22.21c.09-.17,0-.37-.22-.51l-6.14-3.55a1.44,1.44,0,0,0-1.28,0l-9,5.19c-.24.14-.31.34-.22.51A.5.5,0,0,1,505.05,241.76Z" transform="translate(-238.22 -48.26)"/><polygon class="cls-33" points="272.11 114.76 233.16 137.25 233.16 191.23 272.11 168.74 272.11 114.76"/><polygon class="cls-33" points="272.11 114.76 233.16 137.25 233.16 191.23 272.11 168.74 272.11 114.76"/><g class="cls-37"><polygon class="cls-38" points="269.94 170 269.94 118.49 233.16 139.72 233.16 191.23 269.94 170"/></g><g class="cls-66"><g class="cls-67"><path class="cls-68" d="M511.93,218.3l-39.9,23a1.65,1.65,0,0,1-1.48.06l-23.81-13.75c-.37-.22-.33-.6.11-.85l39.9-23a1.65,1.65,0,0,1,1.48-.06L512,217.45C512.41,217.67,512.37,218.05,511.93,218.3Z" transform="translate(-238.22 -48.26)"/><path class="cls-69" d="M471.91,222.43l8.94-5.16a.39.39,0,0,0,0-.73L474.74,213a1.42,1.42,0,0,0-1.27,0l-8.94,5.16a.39.39,0,0,0,0,.73l6.12,3.53A1.4,1.4,0,0,0,471.91,222.43Z" transform="translate(-238.22 -48.26)"/><path class="cls-64" d="M464.53,218.47l8.94-5.16a1.42,1.42,0,0,1,1.27,0l6.11,3.53a.5.5,0,0,1,.22.21c.09-.17,0-.37-.22-.51L474.74,213a1.42,1.42,0,0,0-1.27,0l-8.94,5.16c-.24.14-.31.34-.22.51A.56.56,0,0,1,464.53,218.47Z" transform="translate(-238.22 -48.26)"/><path class="cls-63" d="M460.6,230.5l33.16-19.15a.75.75,0,0,1,.71,0l11.81,6.84a.25.25,0,0,1,0,.44l-33.14,19.13a.71.71,0,0,1-.72,0l-11.82-6.82A.25.25,0,0,1,460.6,230.5Z" transform="translate(-238.22 -48.26)"/><path class="cls-64" d="M460.6,230.94l.12.07,33-19.08a.7.7,0,0,1,.71,0l11.69,6.76.12-.06a.25.25,0,0,0,0-.44l-11.81-6.84a.75.75,0,0,0-.71,0L460.6,230.5A.25.25,0,0,0,460.6,230.94Z" transform="translate(-238.22 -48.26)"/><polygon class="cls-33" points="264.98 169.46 236.09 186.13 237.23 186.79 266.12 170.12 264.98 169.46"/><polygon class="cls-33" points="261.93 167.7 234.48 183.55 235.62 184.21 263.07 168.36 261.93 167.7"/><polygon class="cls-33" points="232.43 184.73 229.86 186.21 231.01 186.87 233.57 185.39 232.43 184.73"/><polygon class="cls-33" points="234.69 186.94 232.91 187.97 234.05 188.63 235.84 187.6 234.69 186.94"/><polygon class="cls-33" points="260.02 166.6 227.95 185.11 229.1 185.77 261.17 167.26 260.02 166.6"/><polygon class="cls-33" points="258.12 165.5 226.05 184.01 227.19 184.67 259.26 166.16 258.12 165.5"/><polygon class="cls-33" points="256.21 164.39 224.14 182.91 225.28 183.57 257.35 165.06 256.21 164.39"/></g></g><polygon class="cls-70" points="243.91 147.12 242.09 148.17 242.09 146.95 243.91 145.91 243.91 147.12"/><polygon class="cls-70" points="243.91 155.35 242.09 156.4 242.09 149.28 243.91 148.23 243.91 155.35"/><polygon class="cls-70" points="243.91 159.29 242.09 160.34 242.09 157.51 243.91 156.47 243.91 159.29"/><polygon class="cls-70" points="243.91 163.37 242.09 164.42 242.09 161.59 243.91 160.54 243.91 163.37"/><polygon class="cls-70" points="246.62 149.5 244.8 150.54 244.8 147.72 246.62 146.67 246.62 149.5"/><polygon class="cls-70" points="246.62 154.9 244.8 155.95 244.8 151.8 246.62 150.75 246.62 154.9"/><polygon class="cls-70" points="246.62 159.88 244.8 160.93 244.8 157.36 246.62 156.31 246.62 159.88"/><polygon class="cls-70" points="243.91 167.45 242.09 168.5 242.09 165.68 243.91 164.63 243.91 167.45"/><polygon class="cls-70" points="246.62 145.56 244.8 146.61 244.8 145.39 246.62 144.34 246.62 145.56"/><polygon class="cls-70" points="245.26 170.63 242.09 172.46 242.09 171.28 245.26 169.45 245.26 170.63"/><path class="cls-71" d="M456.11,139.39a3.68,3.68,0,0,0-1.65-2.87,1.19,1.19,0,0,0-1.18-.11h0l-1.17.69.73,0a2,2,0,0,0,0,.36,3.65,3.65,0,0,0,1.66,2.87,2.14,2.14,0,0,0,.35.16l-.33.63,1.14-.67h0A1.15,1.15,0,0,0,456.11,139.39Z" transform="translate(-238.22 -48.26)"/><path class="cls-72" d="M454.93,140.08c0,1.06-.74,1.49-1.65,1a3.65,3.65,0,0,1-1.66-2.87c0-1.06.74-1.48,1.66-1A3.68,3.68,0,0,1,454.93,140.08Z" transform="translate(-238.22 -48.26)"/><path class="cls-46" d="M454.23,139.68c0,.6-.42.85-1,.55a2.11,2.11,0,0,1-.95-1.65c0-.61.42-.86.95-.55A2.08,2.08,0,0,1,454.23,139.68Z" transform="translate(-238.22 -48.26)"/><path class="cls-73" d="M374.24,92.39a3.67,3.67,0,0,0-1.65-2.87,1.17,1.17,0,0,0-1.18-.11h0l-1.17.69.72,0a2,2,0,0,0,0,.36,3.67,3.67,0,0,0,1.66,2.87,2.14,2.14,0,0,0,.35.16l-.34.63,1.15-.67h0A1.16,1.16,0,0,0,374.24,92.39Z" transform="translate(-238.22 -48.26)"/><path class="cls-74" d="M373.06,93.08c0,1.06-.74,1.48-1.65,1a3.67,3.67,0,0,1-1.66-2.87c0-1.06.74-1.49,1.66-1A3.67,3.67,0,0,1,373.06,93.08Z" transform="translate(-238.22 -48.26)"/><path class="cls-46" d="M372.36,92.67c0,.61-.43.86-.95.55a2.09,2.09,0,0,1-1-1.65c0-.6.43-.85,1-.55A2.14,2.14,0,0,1,372.36,92.67Z" transform="translate(-238.22 -48.26)"/><path class="cls-75" d="M456.11,298.57a3.68,3.68,0,0,0-1.65-2.87,1.19,1.19,0,0,0-1.18-.11h0l-1.17.69h0a1.18,1.18,0,0,1,1.17.11,3.68,3.68,0,0,1,1.65,2.87,1.18,1.18,0,0,1-.45,1.05h0l1.14-.67h0A1.15,1.15,0,0,0,456.11,298.57Z" transform="translate(-238.22 -48.26)"/><path class="cls-76" d="M454.46,299.53a2.62,2.62,0,0,1-.34-.24c-.16.27-.47.33-.84.12a2.11,2.11,0,0,1-.95-1.65c0-.43.21-.67.51-.68a3,3,0,0,1,0-.42,2,2,0,0,1,0-.36l-.73,0a1.16,1.16,0,0,0-.49,1.07,3.65,3.65,0,0,0,1.66,2.87,1.15,1.15,0,0,0,1.2.09l.33-.62A2.14,2.14,0,0,1,454.46,299.53Z" transform="translate(-238.22 -48.26)"/><path class="cls-77" d="M454.93,299.26a3.68,3.68,0,0,0-1.65-2.87,1.18,1.18,0,0,0-1.17-.11l.73,0a2,2,0,0,0,0,.36,3,3,0,0,0,0,.42.81.81,0,0,1,.44.13,2.08,2.08,0,0,1,1,1.65.78.78,0,0,1-.11.43,2.62,2.62,0,0,0,.34.24,2.14,2.14,0,0,0,.35.16l-.33.62A1.18,1.18,0,0,0,454.93,299.26Z" transform="translate(-238.22 -48.26)"/><path class="cls-78" d="M454.93,299.26a3.68,3.68,0,0,0-1.65-2.87,1.18,1.18,0,0,0-1.17-.11l.73,0a2,2,0,0,0,0,.36,3,3,0,0,0,0,.42.81.81,0,0,1,.44.13,2.08,2.08,0,0,1,1,1.65.78.78,0,0,1-.11.43,2.62,2.62,0,0,0,.34.24,2.14,2.14,0,0,0,.35.16l-.33.62A1.18,1.18,0,0,0,454.93,299.26Z" transform="translate(-238.22 -48.26)"/><path class="cls-46" d="M452.33,297.76a2.11,2.11,0,0,0,.95,1.65c.37.21.68.15.84-.12a3.84,3.84,0,0,1-1.28-2.21C452.54,297.09,452.33,297.33,452.33,297.76Z" transform="translate(-238.22 -48.26)"/><path class="cls-46" d="M454.12,299.29a.78.78,0,0,0,.11-.43,2.08,2.08,0,0,0-1-1.65.81.81,0,0,0-.44-.13A3.84,3.84,0,0,0,454.12,299.29Z" transform="translate(-238.22 -48.26)"/><path class="cls-79" d="M372.59,248.7a1.17,1.17,0,0,0-1.18-.11h0l-1.17.69h0a1.15,1.15,0,0,1,1.17.11,3.67,3.67,0,0,1,1.65,2.87,1.18,1.18,0,0,1-.45,1.05h0l1.15-.67h0a1.16,1.16,0,0,0,.49-1.07A3.67,3.67,0,0,0,372.59,248.7Z" transform="translate(-238.22 -48.26)"/><path class="cls-80" d="M372.59,252.53a2.62,2.62,0,0,1-.34-.24.57.57,0,0,1-.84.11,2.09,2.09,0,0,1-1-1.65c0-.42.21-.66.52-.67a2,2,0,0,1,0-.42,2,2,0,0,1,0-.36l-.72,0a1.16,1.16,0,0,0-.49,1.07,3.67,3.67,0,0,0,1.66,2.87,1.15,1.15,0,0,0,1.2.09l.33-.62A2.14,2.14,0,0,1,372.59,252.53Z" transform="translate(-238.22 -48.26)"/><path class="cls-81" d="M373.06,252.26a3.67,3.67,0,0,0-1.65-2.87,1.15,1.15,0,0,0-1.17-.11l.72,0a2,2,0,0,0,0,.36,2,2,0,0,0,0,.42.89.89,0,0,1,.44.12,2.14,2.14,0,0,1,.95,1.65.79.79,0,0,1-.11.44,2.62,2.62,0,0,0,.34.24,2.14,2.14,0,0,0,.35.16l-.33.62A1.18,1.18,0,0,0,373.06,252.26Z" transform="translate(-238.22 -48.26)"/><path class="cls-82" d="M373.06,252.26a3.67,3.67,0,0,0-1.65-2.87,1.15,1.15,0,0,0-1.17-.11l.72,0a2,2,0,0,0,0,.36,2,2,0,0,0,0,.42.89.89,0,0,1,.44.12,2.14,2.14,0,0,1,.95,1.65.79.79,0,0,1-.11.44,2.62,2.62,0,0,0,.34.24,2.14,2.14,0,0,0,.35.16l-.33.62A1.18,1.18,0,0,0,373.06,252.26Z" transform="translate(-238.22 -48.26)"/><path class="cls-46" d="M370.45,250.75a2.09,2.09,0,0,0,1,1.65.57.57,0,0,0,.84-.11,3.79,3.79,0,0,1-1.28-2.21C370.66,250.09,370.45,250.33,370.45,250.75Z" transform="translate(-238.22 -48.26)"/><path class="cls-46" d="M372.25,252.29a.79.79,0,0,0,.11-.44,2.14,2.14,0,0,0-.95-1.65.89.89,0,0,0-.44-.12A3.79,3.79,0,0,0,372.25,252.29Z" transform="translate(-238.22 -48.26)"/><g class="cls-83"><polygon class="cls-84" points="165.36 119.16 156.02 113.77 156.02 111.72 165.36 117.11 165.36 119.16"/><polygon class="cls-85" points="170.15 121.93 166.79 119.99 166.79 117.94 170.15 119.88 170.15 121.93"/><polygon class="cls-84" points="173.87 124.07 171.58 122.75 171.58 120.7 173.87 122.02 173.87 124.07"/><polygon class="cls-84" points="161.11 121.39 156.02 118.46 156.02 116.4 161.11 119.34 161.11 121.39"/><polygon class="cls-70" points="168.78 125.82 162.54 122.22 162.54 120.17 168.78 123.77 168.78 125.82"/><polygon class="cls-84" points="172.49 127.97 170.2 126.65 170.2 124.59 172.49 125.91 172.49 127.97"/><polygon class="cls-84" points="176.02 130.01 173.74 128.69 173.74 126.63 176.02 127.95 176.02 130.01"/><polygon class="cls-84" points="159.7 125.27 156.02 123.14 156.02 121.09 159.7 123.22 159.7 125.27"/><polygon class="cls-84" points="162.39 126.82 161.13 126.09 161.13 124.04 162.39 124.77 162.39 126.82"/><polygon class="cls-84" points="166.1 128.97 163.81 127.64 163.81 125.59 166.1 126.91 166.1 128.97"/><polygon class="cls-85" points="169.61 135.68 156.02 127.83 156.02 125.78 169.61 133.63 169.61 135.68"/><polygon class="cls-84" points="174.41 138.45 171.04 136.5 171.04 134.45 174.41 136.4 174.41 138.45"/><polygon class="cls-84" points="159.7 134.65 156.02 132.52 156.02 130.47 159.7 132.59 159.7 134.65"/><polygon class="cls-70" points="168.35 139.64 161.13 135.47 161.13 133.42 168.35 137.58 168.35 139.64"/><polygon class="cls-84" points="172.06 141.78 169.77 140.46 169.77 138.41 172.06 139.73 172.06 141.78"/><polygon class="cls-85" points="163.55 141.56 156.02 137.21 156.02 135.15 163.55 139.5 163.55 141.56"/><polygon class="cls-85" points="170.43 145.53 164.98 142.38 164.98 140.33 170.43 143.48 170.43 145.53"/><polygon class="cls-84" points="175.54 148.48 171.86 146.35 171.86 144.3 175.54 146.43 175.54 148.48"/><polygon class="cls-84" points="158.56 143.36 156.02 141.89 156.02 139.84 158.56 141.31 158.56 143.36"/><polygon class="cls-84" points="163.35 146.13 159.99 144.19 159.99 142.13 163.35 144.08 163.35 146.13"/><polygon class="cls-84" points="170.2 150.08 164.78 146.95 164.78 144.9 170.2 148.03 170.2 150.08"/><polygon class="cls-84" points="163.81 151.08 156.02 146.58 156.02 144.53 163.81 149.03 163.81 151.08"/><polygon class="cls-85" points="172.55 156.13 165.24 151.91 165.24 149.85 172.55 154.07 172.55 156.13"/><polygon class="cls-84" points="176.26 158.27 173.98 156.95 173.98 154.9 176.26 156.22 176.26 158.27"/><polygon class="cls-70" points="179.83 160.33 177.54 159.01 177.54 156.96 179.83 158.28 179.83 160.33"/><polygon class="cls-84" points="160.69 153.97 156.02 151.27 156.02 149.22 160.69 151.91 160.69 153.97"/><polygon class="cls-70" points="180.23 127.75 186.71 131.49 186.71 129.44 180.23 125.69 180.23 127.75"/><polygon class="cls-85" points="181.62 133.24 186.71 136.18 186.71 134.12 181.62 131.18 181.62 133.24"/><polygon class="cls-84" points="183.02 138.74 186.71 140.86 186.71 138.81 183.02 136.68 183.02 138.74"/><polygon class="cls-70" points="181.35 142.46 186.71 145.55 186.71 143.5 181.35 140.4 181.35 142.46"/><polygon class="cls-84" points="183.02 148.11 186.71 150.24 186.71 148.19 183.02 146.06 183.02 148.11"/><polygon class="cls-84" points="182.03 152.23 186.71 154.92 186.71 152.87 182.03 150.18 182.03 152.23"/><polygon class="cls-84" points="184.16 158.14 186.71 159.61 186.71 157.56 184.16 156.09 184.16 158.14"/><polygon class="cls-84" points="181.77 161.45 186.71 164.3 186.71 162.25 181.77 159.4 181.77 161.45"/><polygon class="cls-84" points="182.03 166.29 186.71 168.99 186.71 166.94 182.03 164.24 182.03 166.29"/><polygon class="cls-84" points="164.1 155.94 162.12 154.79 162.12 152.74 164.1 153.88 164.1 155.94"/><polygon class="cls-85" points="170 159.34 165.53 156.76 165.53 154.71 170 157.29 170 159.34"/><polygon class="cls-84" points="173.7 175.11 166.16 170.75 166.16 168.7 173.7 173.06 173.7 175.11"/><polygon class="cls-84" points="178.87 178.09 175.9 176.38 175.9 174.33 178.87 176.04 178.87 178.09"/></g><path class="cls-5" d="M436.2,249.68a1.6,1.6,0,0,1-.8-.24l-52.12-30.09a4.05,4.05,0,0,1-1.72-3.26v-75.4a1.71,1.71,0,0,1,.72-1.57,1.35,1.35,0,0,1,1.38.08l52.12,30.09a4.05,4.05,0,0,1,1.72,3.26V248a1.73,1.73,0,0,1-.72,1.57A1.17,1.17,0,0,1,436.2,249.68Zm-.42-.89a.65.65,0,0,0,.63.09,1.07,1.07,0,0,0,.34-.92V172.55a3.33,3.33,0,0,0-1.35-2.61l-52.12-30.09a.65.65,0,0,0-.63-.08,1.06,1.06,0,0,0-.34.92v75.4a3.31,3.31,0,0,0,1.35,2.61Z" transform="translate(-238.22 -48.26)"/><polygon class="cls-24" points="53.01 226.39 23.44 209.32 22.72 209.74 53.01 227.22 83.3 209.74 82.58 209.32 53.01 226.39"/><polygon class="cls-24" points="186.51 303.39 156.94 286.32 156.22 286.74 186.51 304.23 216.8 286.74 216.08 286.32 186.51 303.39"/></g></g></svg>