<?xml version="1.0" standalone="no"?>
<!DOCTYPE svg PUBLIC "-//W3C//DTD SVG 20010904//EN"
 "http://www.w3.org/TR/2001/REC-SVG-20010904/DTD/svg10.dtd">
<svg version="1.0" xmlns="http://www.w3.org/2000/svg"
 width="1080.000000pt" height="1080.000000pt" viewBox="0 0 1080.000000 1080.000000"
 preserveAspectRatio="xMidYMid meet">
<metadata>
Created by potrace 1.11, written by Peter Selinger 2001-2013
</metadata>
<g transform="translate(0.000000,1080.000000) scale(0.100000,-0.100000)"
fill="#000000" stroke="none">
<path d="M5400 10795 c0 -3 9 -31 19 -63 11 -31 35 -115 55 -187 20 -71 41
-146 46 -165 11 -38 66 -277 74 -325 3 -16 8 -41 11 -55 3 -14 8 -38 10 -55 3
-16 11 -65 19 -110 15 -81 35 -218 42 -290 2 -22 6 -60 9 -85 2 -25 7 -103 11
-175 3 -71 7 -134 7 -139 1 -5 -138 -10 -318 -12 -176 -2 -338 -5 -360 -8
-130 -14 -164 -18 -200 -22 -598 -76 -1176 -269 -1695 -567 -105 -60 -405
-254 -431 -279 -8 -7 -41 -33 -74 -57 -319 -236 -738 -669 -955 -987 -241
-353 -375 -600 -512 -939 -76 -188 -163 -458 -193 -595 -2 -8 -13 -58 -25
-110 -12 -52 -24 -106 -26 -120 -2 -14 -9 -47 -14 -75 -11 -58 -17 -92 -25
-155 -3 -25 -7 -61 -10 -80 -26 -194 -29 -266 -30 -560 0 -320 7 -435 41 -670
5 -38 6 -46 28 -170 105 -599 373 -1249 723 -1754 54 -78 107 -150 113 -156 3
-3 25 -32 50 -65 145 -194 464 -526 675 -701 154 -127 345 -266 512 -371 73
-46 135 -83 139 -83 3 0 18 -9 33 -19 71 -51 504 -255 616 -291 22 -7 45 -16
50 -20 6 -4 22 -10 37 -14 14 -3 33 -9 42 -12 10 -4 0 24 -29 83 -219 443
-360 929 -393 1356 -9 119 -8 397 1 512 8 92 11 120 27 215 5 30 12 73 16 95
18 123 98 394 169 575 35 90 160 348 201 417 10 17 34 57 53 90 41 70 184 284
203 304 8 8 25 30 38 49 13 19 27 37 30 40 3 3 21 24 39 48 l33 43 44 -48 c46
-50 57 -62 134 -153 57 -67 62 -73 145 -180 37 -47 72 -92 78 -100 26 -33 167
-250 214 -330 142 -240 263 -533 319 -772 9 -42 21 -75 25 -72 5 3 60 82 122
177 261 394 459 755 607 1112 11 26 65 180 80 227 l11 36 115 -69 c146 -88
468 -249 498 -249 2 0 17 -5 33 -12 15 -6 35 -12 43 -14 8 -2 23 -7 35 -13 53
-27 284 -90 422 -116 249 -46 342 -54 633 -51 242 3 308 6 410 22 19 2 53 7
75 10 33 4 280 53 347 69 357 84 816 267 1173 466 94 53 95 54 100 78 26 135
26 808 0 943 -2 10 -7 47 -10 81 -3 35 -7 72 -9 84 -3 12 -8 43 -12 70 -3 26
-8 57 -10 68 -2 11 -7 34 -10 50 -136 763 -482 1500 -988 2105 -162 193 -389
421 -572 574 -22 18 -39 48 -58 103 -207 597 -473 1079 -825 1498 -176 210
-474 480 -650 590 -9 6 -18 13 -21 16 -3 4 -54 37 -113 73 -202 125 -479 252
-694 320 -195 61 -573 141 -573 121z"/>
<path d="M9355 2331 c-73 -70 -176 -133 -325 -199 -77 -34 -295 -102 -370
-116 -14 -2 -59 -11 -100 -19 -79 -16 -148 -27 -275 -41 -176 -21 -517 -26
-945 -14 -195 5 -349 -3 -470 -27 -106 -20 -146 -31 -225 -57 -273 -91 -474
-258 -595 -493 -34 -68 -70 -166 -86 -236 -2 -11 -6 -27 -8 -36 -10 -49 -19
-135 -20 -198 -1 -53 -5 -69 -15 -67 -11 2 -76 47 -91 62 -3 3 -34 29 -70 59
-115 95 -265 245 -325 326 -17 22 -32 42 -35 45 -34 33 -113 184 -145 275 -27
74 -29 220 -5 289 36 107 108 199 215 280 l50 38 -45 -7 c-326 -48 -649 -184
-862 -364 -133 -112 -250 -279 -308 -438 -17 -49 -33 -96 -35 -106 -3 -10 -6
-26 -9 -35 -3 -9 -8 -39 -12 -67 -3 -27 -8 -59 -10 -70 -6 -25 -5 -263 0 -290
2 -11 7 -47 10 -80 20 -174 160 -643 193 -646 4 0 15 -2 23 -4 22 -5 60 -12
105 -20 22 -4 49 -9 60 -11 40 -8 162 -25 215 -30 30 -3 61 -7 68 -10 79 -25
895 -25 992 1 8 2 38 6 65 10 116 13 147 18 295 46 124 23 304 67 470 114 64
18 299 102 405 145 415 168 920 477 1234 755 19 16 62 54 95 84 77 68 308 301
363 367 24 28 53 62 65 76 55 60 163 200 231 298 65 92 177 261 177 265 0 3
25 45 55 96 31 50 55 93 53 95 -2 1 -26 -19 -53 -45z"/>
</g>
</svg>
